<?xml version="1.0" encoding="UTF-8"?>
<svg version="1.1" xmlns="http://www.w3.org/2000/svg" width="1024" height="1024">
<path d="M0 0 C1.56473794 -0.00390516 3.12947231 -0.00955524 4.69419849 -0.0167709 C8.94079837 -0.0313677 13.18702147 -0.02143991 17.43360853 -0.00703418 C22.03336778 0.00416176 26.63307784 -0.00789484 31.23283386 -0.01687622 C40.21993888 -0.03074913 49.20690261 -0.0232983 58.1940008 -0.00820064 C68.66672337 0.0087193 79.13941135 0.005442 89.61214338 0.00170528 C108.29483263 -0.00416163 126.97745429 0.00995623 145.66012573 0.03465271 C163.78157072 0.0586045 181.90292556 0.0656421 200.02438354 0.05516052 C219.78218684 0.04375288 239.53994852 0.0418167 259.29775131 0.05625862 C261.40369979 0.05778441 263.50964828 0.05930477 265.61559677 0.06081963 C266.65166657 0.06157744 267.68773636 0.06233525 268.75520221 0.06311603 C276.05381954 0.06785734 283.35241827 0.06600876 290.65103531 0.06175423 C299.53860018 0.05682958 308.42607983 0.06280397 317.31362517 0.08264852 C321.84719801 0.09252218 326.38064103 0.09762459 330.91422081 0.08975601 C335.06388941 0.08270092 339.21329599 0.08949966 343.36293004 0.10735964 C344.86387742 0.11140495 346.36484868 0.11040286 347.86578716 0.10384078 C364.1087073 0.03890331 364.1087073 0.03890331 369.56539917 5.31370544 C371.07394319 8.24698548 371.62636343 10.17134687 371.69039917 13.50120544 C369.48230032 19.4901836 365.68668947 24.43044685 361.75289917 29.37620544 C357.08729555 35.35535491 352.54179207 41.39625691 348.12789917 47.56370544 C343.98514651 53.34437745 339.78843377 59.07552557 335.50289917 64.75120544 C331.01222525 70.70407773 326.63371324 76.72443662 322.31930542 82.80589294 C319.30249788 87.05658522 316.24578848 91.2782051 313.19039917 95.50120544 C311.02294344 98.50063602 308.85632841 101.5006724 306.69039917 104.50120544 C306.26291382 105.09336853 305.83542847 105.68553162 305.39498901 106.29563904 C287.03684844 131.72879494 287.03684844 131.72879494 270.11227417 158.12229919 C269.0147829 159.94199017 267.86095666 161.72763349 266.69039917 163.50120544 C266.03039917 163.50120544 265.37039917 163.50120544 264.69039917 163.50120544 C264.70610962 162.64704041 264.72182007 161.79287537 264.73800659 160.91282654 C265.21801789 130.73085005 265.6674503 98.25806175 244.71774292 74.18089294 C242.36966721 72.23547376 240.68643868 71.84390667 237.69039917 71.50120544 C238.02039917 72.49120544 238.35039917 73.48120544 238.69039917 74.50120544 C239.35039917 74.83120544 240.01039917 75.16120544 240.69039917 75.50120544 C240.36039917 76.16120544 240.03039917 76.82120544 239.69039917 77.50120544 C238.37039917 76.84120544 237.05039917 76.18120544 235.69039917 75.50120544 C235.69039917 76.49120544 235.69039917 77.48120544 235.69039917 78.50120544 C235.37618846 80.50429874 235.04529457 82.5049188 234.69039917 84.50120544 C234.03039917 84.50120544 233.37039917 84.50120544 232.69039917 84.50120544 C232.36039917 86.15120544 232.03039917 87.80120544 231.69039917 89.50120544 C231.03039917 89.50120544 230.37039917 89.50120544 229.69039917 89.50120544 C230.07711792 89.95108826 230.46383667 90.40097107 230.86227417 90.86448669 C243.44684471 106.4083003 243.93995117 128.97956272 244.00289917 148.12620544 C244.00584991 148.91489014 244.00880066 149.70357483 244.01184082 150.51615906 C244.02897869 170.80892664 242.34273195 191.93804168 236.69039917 211.50120544 C236.03039917 211.83120544 235.37039917 212.16120544 234.69039917 212.50120544 C234.69039917 211.84120544 234.69039917 211.18120544 234.69039917 210.50120544 C234.12659546 210.38945984 233.56279175 210.27771423 232.98190308 210.1625824 C228.09527643 209.19004884 223.21510676 208.19241783 218.33883667 207.16917419 C201.19797271 203.64761595 184.08331891 201.11086331 166.69381714 199.15037537 C165.44043297 199.00552956 165.44043297 199.00552956 164.16172791 198.85775757 C162.59206572 198.67720481 161.02163276 198.50318624 159.45039368 198.33691406 C154.20587389 197.73280073 151.05507765 197.18039967 147.69039917 193.04026794 C147.03039917 192.07862732 146.37039917 191.11698669 145.69039917 190.12620544 C141.09767839 183.05723018 141.09767839 183.05723018 133.81539917 179.62620544 C130.02681825 179.33640728 127.13804008 179.77738499 123.69039917 181.50120544 C122.28185251 183.31822402 122.28185251 183.31822402 121.69039917 185.50120544 C121.42227417 186.14058044 121.15414917 186.77995544 120.87789917 187.43870544 C120.60527523 190.43756876 122.12154444 192.01718545 123.69039917 194.50120544 C123.36039917 195.16120544 123.03039917 195.82120544 122.69039917 196.50120544 C121.78976746 196.39523544 121.78976746 196.39523544 120.87094116 196.28712463 C114.63258252 195.60156836 108.49436156 195.35430562 102.22164917 195.36839294 C100.78021545 195.36695786 100.78021545 195.36695786 99.30966187 195.36549377 C97.29285618 195.36481809 95.27604824 195.36662931 93.25924683 195.37083435 C90.19848679 195.37619129 87.13787347 195.37086838 84.07711792 195.36448669 C82.10446135 195.36514758 80.13180487 195.36642897 78.15914917 195.36839294 C76.80714417 195.3653566 76.80714417 195.3653566 75.42782593 195.36225891 C69.46192324 195.38392667 63.61496377 195.80411016 57.69039917 196.50120544 C60.03414917 193.52268982 60.03414917 193.52268982 62.37789917 190.54417419 C63.960656 188.48524545 63.960656 188.48524545 63.69039917 185.50120544 C63.03039917 185.17120544 62.37039917 184.84120544 61.69039917 184.50120544 C60.12183967 182.55619167 58.80853411 180.73747532 57.69039917 178.50120544 C57.07164917 178.19183044 56.45289917 177.88245544 55.81539917 177.56370544 C53.63229382 176.47215277 52.32029449 175.29409029 50.69039917 173.50120544 C47.39496638 174.89678177 45.69241814 176.41866557 43.56149292 179.27464294 C43.00139526 180.01714294 42.44129761 180.75964294 41.86422729 181.52464294 C41.29123901 182.30065857 40.71825073 183.07667419 40.12789917 183.87620544 C39.5510437 184.64448669 38.97418823 185.41276794 38.37985229 186.20433044 C35.23827953 190.26607574 35.23827953 190.26607574 32.60031128 194.64671326 C29.41009836 197.74435577 25.42599173 197.68352833 21.13571167 198.21214294 C19.69368126 198.41244362 19.69368126 198.41244362 18.22251892 198.61679077 C16.15935428 198.9024457 14.09515338 199.18069475 12.03009033 199.45228577 C6.66009473 200.16042434 1.29837053 200.92574848 -4.06350708 201.69261169 C-5.12274887 201.84326584 -6.18199066 201.99391998 -7.27333069 202.1491394 C-19.14600318 203.86498616 -30.82048488 206.25880206 -42.52297974 208.88645935 C-46.77213013 209.82384858 -51.03889087 210.66840218 -55.30960083 211.50120544 C-62.86035224 174.36876734 -71.42344969 129.37466228 -52.30960083 94.50120544 C-50.71174161 91.64935505 -50.71174161 91.64935505 -50.30960083 88.50120544 C-50.96960083 88.50120544 -51.62960083 88.50120544 -52.30960083 88.50120544 C-53.29960083 90.48120544 -53.29960083 90.48120544 -54.30960083 92.50120544 C-55.41733425 89.17800519 -55.24272591 87.809558 -54.30960083 84.50120544 C-53.64960083 83.84120544 -52.98960083 83.18120544 -52.30960083 82.50120544 C-52.63960083 82.17120544 -52.96960083 81.84120544 -53.30960083 81.50120544 C-54.29960083 81.99620544 -54.29960083 81.99620544 -55.30960083 82.50120544 C-55.63960083 80.52120544 -55.96960083 78.54120544 -56.30960083 76.50120544 C-57.29960083 76.50120544 -58.28960083 76.50120544 -59.30960083 76.50120544 C-59.63960083 75.51120544 -59.96960083 74.52120544 -60.30960083 73.50120544 C-74.97685596 84.64831935 -79.52321695 103.37831963 -81.93460083 120.87229919 C-84.38815159 140.37308768 -83.31994094 159.93123987 -82.30960083 179.50120544 C-81.64960083 179.83120544 -80.98960083 180.16120544 -80.30960083 180.50120544 C-80.36116333 181.56854919 -80.41272583 182.63589294 -80.46585083 183.73558044 C-80.46585083 189.56516659 -79.08383354 195.08947955 -77.80960083 200.75120544 C-77.33724912 202.88061803 -76.86835114 205.01080045 -76.40335083 207.14183044 C-76.19387817 208.07543396 -75.98440552 209.00903748 -75.76858521 209.97093201 C-75.30960083 212.50120544 -75.30960083 212.50120544 -75.30960083 216.50120544 C-77.07883911 217.03294373 -77.07883911 217.03294373 -78.88381958 217.57542419 C-106.4124852 226.14391244 -134.57236798 238.18790863 -156.30960083 257.50120544 C-157.22999146 258.20890076 -157.22999146 258.20890076 -158.16897583 258.93089294 C-166.3315831 265.25878574 -172.37921774 274.53584216 -177.30960083 283.50120544 C-177.96960083 283.50120544 -178.62960083 283.50120544 -179.30960083 283.50120544 C-177.83391063 278.86863065 -176.07510971 274.3944126 -174.18460083 269.91917419 C-173.5597459 268.42878448 -172.9349094 266.93838703 -172.31008911 265.44798279 C-171.98397644 264.67234985 -171.65786377 263.89671692 -171.3218689 263.09757996 C-166.20921577 250.93109933 -161.15567808 238.74564258 -156.28445435 226.48020935 C-151.59205687 214.67036374 -146.81298752 202.89581686 -142.04055786 191.1181488 C-141.67287292 190.21074448 -141.30518799 189.30334015 -140.92636108 188.36843872 C-140.17652303 186.51792818 -139.42664481 184.66743391 -138.67672729 182.81695557 C-136.1228604 176.51348122 -133.5758861 170.20725458 -131.03225708 163.89964294 C-82.99269995 44.81191225 -82.99269995 44.81191225 -68.30960083 28.50120544 C-67.78366333 27.75999451 -67.25772583 27.01878357 -66.71585083 26.25511169 C-66.25178833 25.67632263 -65.78772583 25.09753357 -65.30960083 24.50120544 C-64.64960083 24.50120544 -63.98960083 24.50120544 -63.30960083 24.50120544 C-63.30960083 23.84120544 -63.30960083 23.18120544 -63.30960083 22.50120544 C-56.98360806 16.58227656 -49.84237431 11.89597211 -42.05960083 8.12620544 C-41.13449707 7.66286804 -41.13449707 7.66286804 -40.19070435 7.19017029 C-27.46569213 1.34538586 -13.8123329 -0.09737107 0 0 Z M-55.30960083 67.50120544 C-55.63960083 68.16120544 -55.96960083 68.82120544 -56.30960083 69.50120544 C-55.64960083 69.50120544 -54.98960083 69.50120544 -54.30960083 69.50120544 C-54.63960083 68.84120544 -54.96960083 68.18120544 -55.30960083 67.50120544 Z M236.69039917 67.50120544 C236.69039917 68.16120544 236.69039917 68.82120544 236.69039917 69.50120544 C237.35039917 69.17120544 238.01039917 68.84120544 238.69039917 68.50120544 C238.03039917 68.17120544 237.37039917 67.84120544 236.69039917 67.50120544 Z M-51.30960083 78.50120544 C-50.30960083 80.50120544 -50.30960083 80.50120544 -50.30960083 80.50120544 Z M50.69039917 169.50120544 C51.69039917 171.50120544 51.69039917 171.50120544 51.69039917 171.50120544 Z M132.69039917 172.50120544 C133.69039917 174.50120544 133.69039917 174.50120544 133.69039917 174.50120544 Z M135.69039917 176.50120544 C136.69039917 178.50120544 136.69039917 178.50120544 136.69039917 178.50120544 Z M114.69039917 182.50120544 C115.69039917 184.50120544 115.69039917 184.50120544 115.69039917 184.50120544 Z M118.69039917 187.50120544 C119.69039917 189.50120544 119.69039917 189.50120544 119.69039917 189.50120544 Z " fill="#9651FE" transform="translate(422.3096008300781,187.49879455566406)"/>
<path d="M0 0 C0.55075195 0.17160645 1.10150391 0.34321289 1.66894531 0.52001953 C9.30564689 2.85870135 17.00850863 4.91415254 24.75 6.875 C25.43698975 7.04919464 26.12397949 7.22338928 26.83178711 7.40286255 C39.72192701 10.64414398 52.64916136 13.04533784 65.78125 15.08984375 C66.86535156 15.26040283 67.94945312 15.43096191 69.06640625 15.60668945 C71.90411177 16.03545385 71.90411177 16.03545385 74.40234375 16.08666992 C77.2757678 16.19428753 79.40863704 16.47877586 81.60351562 18.41333008 C83.21059351 20.34919877 84.61085108 22.3400648 86 24.4375 C87.02473478 25.89545069 88.05077891 27.35248195 89.078125 28.80859375 C89.57119141 29.52257324 90.06425781 30.23655273 90.57226562 30.97216797 C92.52425151 33.7446021 94.61344198 36.36718471 96.75 39 C97.38421875 39.78375 98.0184375 40.5675 98.671875 41.375 C99.32929688 42.179375 99.32929688 42.179375 100 43 C100.78117187 42.814375 101.56234375 42.62875 102.3671875 42.4375 C105.45614101 41.92420209 106.32398513 42.57279207 109 44 C109.99 43.67 110.98 43.34 112 43 C112 42.01 112 41.02 112 40 C112.7425 39.9175 113.485 39.835 114.25 39.75 C117.52753253 38.85612749 118.71559013 37.44060884 121 35 C120.3503125 34.30132813 119.700625 33.60265625 119.03125 32.8828125 C118.1959375 31.97273437 117.360625 31.06265625 116.5 30.125 C115.6646875 29.22007812 114.829375 28.31515625 113.96875 27.3828125 C112 25 112 25 112 23 C111.34 23 110.68 23 110 23 C110 22.34 110 21.68 110 21 C109.34 21 108.68 21 108 21 C108.495 19.515 108.495 19.515 109 18 C109.65524658 18.0707373 110.31049316 18.14147461 110.9855957 18.21435547 C119.59599499 19.04566406 128.13880751 19.15319998 136.77954102 19.13037109 C139.16624417 19.12504741 141.55275593 19.13032866 143.93945312 19.13671875 C154.32624582 19.14073049 164.63929219 18.72639954 175 18 C172.39778264 21.94145377 169.72518472 25.70560551 166.75 29.375 C166.04359375 30.24898437 165.3371875 31.12296875 164.609375 32.0234375 C164.07828125 32.67570313 163.5471875 33.32796875 163 34 C170.79145641 40.05712564 170.79145641 40.05712564 180 43 C184.17824996 41.80810619 186.13360142 40.1033537 188.75 36.6875 C189.78060547 35.36298828 189.78060547 35.36298828 190.83203125 34.01171875 C192.37511574 31.86808246 193.80651449 29.75488011 195.19921875 27.51953125 C195.75947754 26.64325073 195.75947754 26.64325073 196.33105469 25.74926758 C197.38893979 24.07677271 198.41218561 22.38251781 199.43359375 20.6875 C203.02157342 16.93022448 205.99015615 16.73037252 211 16 C213.33433913 15.57317294 215.66758536 15.1403463 218 14.703125 C219.28817627 14.46940186 220.57635254 14.23567871 221.90356445 13.99487305 C246.73366109 9.64999521 246.73366109 9.64999521 271 3 C271 6 271 6 269 9 C268.34 9 267.68 9 267 9 C266.67515625 9.77537109 266.67515625 9.77537109 266.34375 10.56640625 C264.44343631 14.00796273 261.98477164 16.90137485 259.5 19.9375 C258.40911829 21.28431619 257.31929153 22.63198748 256.23046875 23.98046875 C255.68567871 24.65513184 255.14088867 25.32979492 254.57958984 26.02490234 C252.28008647 28.90017008 250.04326573 31.82128909 247.8125 34.75 C244.10569793 39.60337902 240.29085825 44.35426702 236.40625 49.06640625 C233.62091978 52.46215786 230.86865166 55.88304483 228.125 59.3125 C227.61670654 59.94768555 227.10841309 60.58287109 226.5847168 61.23730469 C223.63323345 64.93331899 220.7077994 68.64831918 217.79956055 72.37841797 C213.30946812 78.13610237 208.69433401 83.74883471 203.93798828 89.28833008 C199.65743523 94.31599745 195.78508398 99.5880891 192 105 C191.360625 104.835 190.72125 104.67 190.0625 104.5 C186.93391489 103.74155512 185.86356598 104.52203046 183 106 C182.67 105.01 182.34 104.02 182 103 C180.56249809 101.31201173 180.56249809 101.31201173 179 100 C177.13950458 100 175.75240829 100.36276062 174 101 C171.88896342 103.95545121 171.80214217 106.43855901 172 110 C169.525 110.495 169.525 110.495 167 111 C169.66695447 113.74058204 172.53546183 116.15914873 175.4765625 118.59765625 C177 120 177 120 178 122 C170.65525819 131.9947677 163.04446257 141.6955778 155.1171875 151.234375 C151.64440741 155.41483916 148.30900084 159.68939576 145 164 C138.53316063 172.33432599 131.93409284 180.5410772 125.20629883 188.66625977 C120.52614089 194.33042782 115.96439048 200.07809171 111.4453125 205.87109375 C109.31541398 208.59641119 107.16604479 211.30340578 105 214 C101.31923654 218.58586922 97.68791008 223.20938541 94.05981445 227.83691406 C91.45473134 231.15696824 88.83417471 234.46290936 86.1875 237.75 C82.50666598 242.33226276 78.91081776 246.97796553 75.3125 251.625 C70.16974503 258.2631513 64.93241181 264.81269062 59.61450195 271.31103516 C55.49703486 276.35460227 51.5293783 281.49377192 47.58203125 286.671875 C44.1622217 291.11776085 40.584642 295.43521298 37.02954102 299.77294922 C33.05580742 304.64412739 29.22605869 309.60899374 25.4375 314.625 C21.26504968 320.12378796 17.01455797 325.53666083 12.5625 330.8125 C12.09062256 331.3811377 11.61874512 331.94977539 11.13256836 332.53564453 C5.73113276 338.839073 0.94427709 341.61221356 -7.1875 342.25 C-8.115625 342.1675 -9.04375 342.085 -10 342 C-10.99 340.515 -10.99 340.515 -12 339 C-12.99 338.34 -13.98 337.68 -15 337 C-18.92209395 327.39086981 -15.31834065 317.90148939 -12.4375 308.4375 C-12.10814453 307.33341797 -11.77878906 306.22933594 -11.43945312 305.09179688 C-10.63313872 302.39239648 -9.81986701 299.69530881 -9 297 C-9.66 296.67 -10.32 296.34 -11 296 C-10.01 296 -9.02 296 -8 296 C-7.8956665 295.05922607 -7.79133301 294.11845215 -7.68383789 293.14916992 C-6.96799939 288.1666999 -5.49520568 283.42762959 -4.05859375 278.61328125 C-3.77146011 277.63385056 -3.48432648 276.65441986 -3.18849182 275.64530945 C-1.96613023 271.47578808 -0.73268171 267.30957359 0.50073242 263.14331055 C1.40201506 260.09290675 2.29691329 257.04068163 3.19140625 253.98828125 C3.61323936 252.57570793 3.61323936 252.57570793 4.04359436 251.13459778 C4.42915749 249.81754097 4.42915749 249.81754097 4.82250977 248.47387695 C5.05043716 247.70445267 5.27836456 246.93502838 5.51319885 246.14228821 C6.14772359 243.71605619 6.14772359 243.71605619 6 240 C6.66 240 7.32 240 8 240 C8.11532578 239.38593796 8.23065155 238.77187592 8.34947205 238.13920593 C9.48770734 232.24475935 10.87048568 226.48213345 12.50390625 220.70703125 C12.74336472 219.84978958 12.98282318 218.99254791 13.22953796 218.10932922 C14.00358369 215.34269362 14.78302777 212.57761107 15.5625 209.8125 C16.09951839 207.8950852 16.63630014 205.97760411 17.17285156 204.06005859 C19.66356503 195.17775751 22.18569675 186.30586542 24.79296875 177.45703125 C25.00502457 176.73568497 25.21708038 176.01433868 25.43556213 175.27113342 C26.41657689 171.93784647 27.40536897 168.60723193 28.40844727 165.28051758 C28.75319092 164.1180249 29.09793457 162.95553223 29.453125 161.7578125 C29.75379883 160.7589502 30.05447266 159.76008789 30.36425781 158.73095703 C30.988741 156.04836526 31.12389088 153.74249353 31 151 C32.20011719 150.79246094 33.40023437 150.58492187 34.63671875 150.37109375 C61.61700501 145.48425347 85.13716141 135.63847197 107 119 C109.32357508 117.31919077 111.66082149 115.65911659 114 114 C113.65479552 112.03506426 113.65479552 112.03506426 113 110 C111.0162233 108.71563266 111.0162233 108.71563266 109 108 C109.33 107.34 109.66 106.68 110 106 C109.4225 105.5875 108.845 105.175 108.25 104.75 C106 103 106 103 104 100.75 C103.01 99.88375 103.01 99.88375 102 99 C98.74259951 99.39049714 96.5820561 100.7824752 93.9453125 102.66015625 C93.17324463 103.20260986 92.40117676 103.74506348 91.60571289 104.30395508 C90.37776001 105.17443481 90.37776001 105.17443481 89.125 106.0625 C78.02353273 113.75958723 67.10009907 120.33964446 54.5625 125.4375 C53.30095093 125.95147339 53.30095093 125.95147339 52.01391602 126.47583008 C47.30905578 128.31694396 43.03302109 129.51905182 38 130 C38 129.01 38 128.02 38 127 C38.66 127 39.32 127 40 127 C40.1134375 126.31421875 40.226875 125.6284375 40.34375 124.921875 C41.10101384 121.5502479 42.26639856 118.47744564 43.5 115.25 C46.31527856 107.40977658 48.60546523 100.71438448 45.05859375 92.78515625 C42.1319727 87.84985802 38.41342259 85.90958006 33.125 84.25 C19.58321485 81.03793236 5.74501938 82.0288845 -8 83 C-9.50918332 19.01836664 -9.50918332 19.01836664 0 0 Z M170 105 C171 107 171 107 171 107 Z " fill="#BC41FE" transform="translate(372,598)"/>
<path d="M0 0 C1.23556641 0.01353516 1.23556641 0.01353516 2.49609375 0.02734375 C43.96962981 1.16707451 83.62944147 31.58120964 112.8359375 58.39453125 C115.19817846 60.50281115 117.6363576 62.48088186 120.125 64.4375 C124.37018105 62.77048988 127.28158398 59.60982465 130.5 56.5 C136.81803626 50.52211477 143.38464948 45.06697796 150.31542969 39.81884766 C152.15644067 38.41349956 153.97336948 36.98083247 155.7890625 35.54296875 C174.42267471 20.95680181 195.30082653 9.01059771 218.125 2.4375 C218.88167969 2.21191406 219.63835937 1.98632812 220.41796875 1.75390625 C231.96301397 -1.12738731 246.09507983 -1.15037628 257.125 3.4375 C258.115 3.7675 259.105 4.0975 260.125 4.4375 C260.455 5.0975 260.785 5.7575 261.125 6.4375 C263.65233235 7.09305119 263.65233235 7.09305119 266.125 7.4375 C266.125 8.4275 266.125 9.4175 266.125 10.4375 C267.775 11.0975 269.425 11.7575 271.125 12.4375 C270.465 12.7675 269.805 13.0975 269.125 13.4375 C268.465 13.1075 267.805 12.7775 267.125 12.4375 C267.455 13.4275 267.785 14.4175 268.125 15.4375 C268.785 15.7675 269.445 16.0975 270.125 16.4375 C269.795 17.0975 269.465 17.7575 269.125 18.4375 C267.145 17.4475 267.145 17.4475 265.125 16.4375 C265.125 17.4275 265.125 18.4175 265.125 19.4375 C264.81078929 21.44059329 264.4798954 23.44121336 264.125 25.4375 C263.465 25.4375 262.805 25.4375 262.125 25.4375 C261.795 27.0875 261.465 28.7375 261.125 30.4375 C260.465 30.4375 259.805 30.4375 259.125 30.4375 C259.70507812 31.11232422 259.70507812 31.11232422 260.296875 31.80078125 C272.88144554 47.34459486 273.374552 69.91585728 273.4375 89.0625 C273.44045074 89.85118469 273.44340149 90.63986938 273.44644165 91.45245361 C273.46357952 111.7452212 271.77733278 132.87433624 266.125 152.4375 C265.465 152.7675 264.805 153.0975 264.125 153.4375 C264.125 152.7775 264.125 152.1175 264.125 151.4375 C263.56119629 151.32575439 262.99739258 151.21400879 262.41650391 151.09887695 C257.52987726 150.12634339 252.64970759 149.12871238 247.7734375 148.10546875 C230.63257354 144.58391051 213.51791974 142.04715786 196.12841797 140.08666992 C195.29282852 139.99010605 194.45723907 139.89354218 193.59632874 139.79405212 C192.02666655 139.61349936 190.45623359 139.43948079 188.88499451 139.27320862 C183.64047472 138.66909529 180.48967848 138.11669423 177.125 133.9765625 C176.135 132.53410156 176.135 132.53410156 175.125 131.0625 C170.53227922 123.99352474 170.53227922 123.99352474 163.25 120.5625 C159.46141908 120.27270183 156.57264091 120.71367955 153.125 122.4375 C151.71645334 124.25451858 151.71645334 124.25451858 151.125 126.4375 C150.856875 127.076875 150.58875 127.71625 150.3125 128.375 C150.03987606 131.37386332 151.55614527 132.95348001 153.125 135.4375 C152.795 136.0975 152.465 136.7575 152.125 137.4375 C151.52457886 137.36685333 150.92415771 137.29620667 150.30554199 137.22341919 C144.06718335 136.53786291 137.92896239 136.29060018 131.65625 136.3046875 C130.21481628 136.30325241 130.21481628 136.30325241 128.7442627 136.30178833 C126.72745701 136.30111265 124.71064907 136.30292387 122.69384766 136.30712891 C119.63308762 136.31248585 116.5724743 136.30716294 113.51171875 136.30078125 C111.53906218 136.30144214 109.5664057 136.30272353 107.59375 136.3046875 C106.241745 136.30165115 106.241745 136.30165115 104.86242676 136.29855347 C98.89652407 136.32022123 93.0495646 136.74040472 87.125 137.4375 C88.6875 135.45182292 90.25 133.46614583 91.8125 131.48046875 C93.39525683 129.42154001 93.39525683 129.42154001 93.125 126.4375 C92.465 126.1075 91.805 125.7775 91.125 125.4375 C89.5564405 123.49248622 88.24313494 121.67376988 87.125 119.4375 C86.50625 119.128125 85.8875 118.81875 85.25 118.5 C83.06689465 117.40844732 81.75489532 116.23038485 80.125 114.4375 C76.82956721 115.83307633 75.12701897 117.35496012 72.99609375 120.2109375 C72.43599609 120.9534375 71.87589844 121.6959375 71.29882812 122.4609375 C70.72583984 123.23695313 70.15285156 124.01296875 69.5625 124.8125 C68.98564453 125.58078125 68.40878906 126.3490625 67.81445312 127.140625 C64.67288036 131.2023703 64.67288036 131.2023703 62.03491211 135.58300781 C58.84469919 138.68065032 54.86059256 138.61982288 50.5703125 139.1484375 C49.12828209 139.34873817 49.12828209 139.34873817 47.65711975 139.55308533 C45.59395511 139.83874025 43.52975421 140.11698931 41.46469116 140.38858032 C36.09469556 141.09671889 30.73297136 141.86204304 25.37109375 142.62890625 C24.31185196 142.77956039 23.25261017 142.93021454 22.16127014 143.08543396 C10.28859765 144.80128071 -1.38588405 147.19509661 -13.08837891 149.82275391 C-17.3375293 150.76014314 -21.60429004 151.60469674 -25.875 152.4375 C-33.42575141 115.3050619 -41.98884886 70.31095683 -22.875 35.4375 C-21.27714078 32.5856496 -21.27714078 32.5856496 -20.875 29.4375 C-21.535 29.4375 -22.195 29.4375 -22.875 29.4375 C-23.535 30.7575 -24.195 32.0775 -24.875 33.4375 C-25.98273342 30.11429974 -25.80812508 28.74585256 -24.875 25.4375 C-24.215 24.7775 -23.555 24.1175 -22.875 23.4375 C-23.205 23.1075 -23.535 22.7775 -23.875 22.4375 C-24.535 22.7675 -25.195 23.0975 -25.875 23.4375 C-26.205 21.4575 -26.535 19.4775 -26.875 17.4375 C-27.865 17.4375 -28.855 17.4375 -29.875 17.4375 C-30.205 16.1175 -30.535 14.7975 -30.875 13.4375 C-27.125 10.4375 -27.125 10.4375 -24.875 10.4375 C-24.545 9.4475 -24.215 8.4575 -23.875 7.4375 C-16.2860564 2.4814552 -9.09336233 -0.1218541 0 0 Z M-21.875 19.4375 C-20.875 21.4375 -20.875 21.4375 -20.875 21.4375 Z M80.125 110.4375 C81.125 112.4375 81.125 112.4375 81.125 112.4375 Z M162.125 113.4375 C163.125 115.4375 163.125 115.4375 163.125 115.4375 Z M165.125 117.4375 C166.125 119.4375 166.125 119.4375 166.125 119.4375 Z M144.125 123.4375 C145.125 125.4375 145.125 125.4375 145.125 125.4375 Z M148.125 128.4375 C149.125 130.4375 149.125 130.4375 149.125 130.4375 Z " fill="#994EFE" transform="translate(392.875,246.5625)"/>
<path d="M0 0 C7.01550836 -0.16279285 14.02691266 -0.19526826 21.04406738 -0.17068481 C24.67224876 -0.15996569 28.29993409 -0.17064714 31.92810059 -0.18338013 C43.03643275 -0.19257241 54.11907194 -0.01808507 65.19958496 0.81271362 C66.55176369 0.89516327 66.55176369 0.89516327 67.93125916 0.97927856 C72.13256229 1.35301248 74.21177361 1.67656627 77.61291504 4.32614136 C79.74711716 7.10955783 81.19237128 9.94518966 82.74255371 13.09005737 C83.89511931 14.89496081 85.10505135 16.65089176 86.32531738 18.41061401 C102.50522312 41.78634406 115.90270864 66.77809065 128.74255371 92.09005737 C129.3239209 93.10608032 129.90528809 94.12210327 130.50427246 95.16891479 C131.9301301 98.5325557 131.93016814 99.68873502 130.74255371 103.09005737 C129.85792765 105.00342238 128.90262428 106.88488402 127.89880371 108.73849487 C127.31679199 109.81840698 126.73478027 110.89831909 126.13513184 112.01095581 C125.51058105 113.15080933 124.88603027 114.29066284 124.24255371 115.46505737 C123.59598099 116.65283481 122.94949712 117.84066061 122.30310059 119.02853394 C117.66518302 127.52350413 112.88883253 135.89405768 107.74255371 144.09005737 C107.24852051 144.88234741 106.7544873 145.67463745 106.2454834 146.49093628 C99.5286019 157.2439618 92.62630352 167.85864055 85.49255371 178.34005737 C84.52648193 179.76040283 84.52648193 179.76040283 83.54089355 181.20944214 C79.00252273 187.83008836 79.00252273 187.83008836 76.74255371 190.09005737 C73.83016832 190.54521055 70.98565653 190.88822849 68.05505371 191.15255737 C67.2835498 191.23054565 66.5120459 191.30853394 65.71716309 191.3888855 C63.0605873 191.64790699 60.40296445 191.8738489 57.74255371 192.09005737 C56.63299316 192.18053345 55.52343262 192.27100952 54.38024902 192.36422729 C44.53409076 193.09685178 34.73726895 193.2890668 24.86755371 193.27755737 C24.06694519 193.2776178 23.26633667 193.27767822 22.44146729 193.27774048 C12.05235438 193.2666352 1.72841745 193.0394142 -8.63244629 192.21505737 C-9.62228516 192.13666626 -10.61212402 192.05827515 -11.63195801 191.97750854 C-14.18645291 191.74301302 -16.7167012 191.441305 -19.25744629 191.09005737 C-20.49494629 190.91990112 -21.73244629 190.74974487 -23.00744629 190.57443237 C-27.91429649 188.33332291 -29.99861729 184.65370059 -32.88244629 180.21505737 C-33.48435791 179.32028687 -34.08626953 178.42551636 -34.7064209 177.50363159 C-36.57623392 174.71150134 -38.41755881 171.90197019 -40.25744629 169.09005737 C-41.36959441 167.42263437 -42.48283399 165.75593871 -43.59729004 164.09005737 C-54.37815183 147.8586 -64.1790668 131.06708644 -73.50744629 113.96505737 C-74.06883301 112.93928589 -74.63021973 111.9135144 -75.20861816 110.85665894 C-75.7248877 109.89985229 -76.24115723 108.94304565 -76.77307129 107.95724487 C-77.22972168 107.1127478 -77.68637207 106.26825073 -78.15686035 105.39816284 C-79.18465016 103.24272254 -79.91912053 101.45069018 -80.25744629 99.09005737 C-79.32033584 96.72890655 -78.32789072 94.62918237 -77.13244629 92.40255737 C-76.77626221 91.71758179 -76.42007812 91.0326062 -76.05310059 90.32687378 C-75.24585642 88.7765731 -74.4335899 87.22888105 -73.61730957 85.68331909 C-72.14937981 82.88397441 -70.71541104 80.06879844 -69.28479004 77.25021362 C-60.18540382 59.40390198 -50.47652758 41.86002107 -39.25842285 25.24215698 C-36.41480106 21.02112399 -34.0094625 16.78400117 -31.85803223 12.16769409 C-26.44957322 2.94897392 -26.44957322 2.94897392 -22.24313354 1.30081177 C-19.850774 0.8889105 -17.54679321 0.72190712 -15.12072754 0.63302612 C-14.21366562 0.57403137 -13.3066037 0.51503662 -12.37205505 0.45425415 C-8.24988989 0.21732399 -4.12709182 0.11410013 0 0 Z M-13.44494629 55.71505737 C-22.71041196 65.46817914 -27.00902184 78.23614821 -27.63244629 91.52755737 C-26.89400283 108.05022986 -21.07961485 120.59178384 -9.25744629 132.09005737 C1.76294905 142.06089125 15.09983096 145.68499268 29.74255371 144.96505737 C41.60450286 144.11186146 50.46887157 140.42499063 59.74255371 133.09005737 C60.69774902 132.39783081 60.69774902 132.39783081 61.67224121 131.69161987 C71.22700351 124.3450693 76.17492176 112.74661323 78.27380371 101.15646362 C80.21121177 84.57841514 75.49763488 69.85733194 65.26989746 56.85568237 C61.25613787 52.46350031 56.78106606 49.21454025 51.74255371 46.09005737 C51.11091309 45.67111206 50.47927246 45.25216675 49.82849121 44.82052612 C29.08655284 32.62207338 3.0850276 40.61831821 -13.44494629 55.71505737 Z " fill="#A648FE" transform="translate(487.2574462890625,403.9099426269531)"/>
<path d="M0 0 C1.1859375 0.45117188 2.371875 0.90234375 3.59375 1.3671875 C33.47609299 13.30470155 58.70338439 34.29846798 82 56 C79.01002257 60.2584527 75.93149812 64.18854992 72.1875 67.8125 C68.95329638 70.98402525 65.89821917 74.25784705 62.9375 77.6875 C62.16277344 78.57824219 61.38804687 79.46898437 60.58984375 80.38671875 C58.70816893 82.89708252 58.70816893 82.89708252 59.25390625 85.83203125 C59.50011719 86.54746094 59.74632812 87.26289063 60 88 C58.02 87.505 58.02 87.505 56 87 C53.93394305 89.51793616 51.87282869 92.03987534 49.8125 94.5625 C48.9452832 95.61920898 48.9452832 95.61920898 48.06054688 96.69726562 C47.49013672 97.39658203 46.91972656 98.09589844 46.33203125 98.81640625 C45.81358643 99.45006104 45.2951416 100.08371582 44.76098633 100.73657227 C43.02814928 102.84647274 43.02814928 102.84647274 42.02182007 104.74934387 C40.34009225 107.58082251 39.05572586 109.56940967 35.94075012 110.83988953 C33.37783436 111.38461071 30.85517759 111.72358965 28.25 112.00390625 C27.29147629 112.13319519 26.33295258 112.26248413 25.34538269 112.39569092 C23.29491538 112.66948744 21.24259134 112.92966455 19.18881226 113.17739868 C13.84298072 113.82299541 8.51055084 114.566364 3.17578125 115.296875 C2.12272293 115.43825394 1.06966461 115.57963287 -0.01530457 115.72529602 C-11.88847658 117.34150379 -23.52519531 119.76081004 -35.21337891 122.38525391 C-39.4625293 123.32264314 -43.72929004 124.16719674 -48 125 C-65.04927311 41.15654608 -65.04927311 41.15654608 -45 8 C-33.95739039 -7.35059065 -16.42326165 -6.40814181 0 0 Z " fill="#9C4DFE" transform="translate(415,274)"/>
<path d="M0 0 C0.55075195 0.17160645 1.10150391 0.34321289 1.66894531 0.52001953 C9.30564689 2.85870135 17.00850863 4.91415254 24.75 6.875 C25.43698975 7.04919464 26.12397949 7.22338928 26.83178711 7.40286255 C39.72192701 10.64414398 52.64916136 13.04533784 65.78125 15.08984375 C66.865271 15.26032227 67.94929199 15.43080078 69.06616211 15.60644531 C71.90445409 16.03509705 71.90445409 16.03509705 74.40454102 16.08886719 C77.26284618 16.19819205 79.40121915 16.47295865 81.58740234 18.3972168 C83.17854343 20.31801419 84.56273309 22.29412529 85.9375 24.375 C86.97201392 25.84642107 88.00848324 27.31646923 89.046875 28.78515625 C89.54767578 29.50719238 90.04847656 30.22922852 90.56445312 30.97314453 C93.78311379 35.51758685 97.44122154 39.7216871 101 44 C102.50037341 45.85386452 104.00036941 47.70803454 105.5 49.5625 C110.42579394 55.58864581 115.64485612 61.33419465 120.8984375 67.07421875 C125 71.66681338 125 71.66681338 125 75 C121.09833957 79.31198265 116.62143429 83.10960352 112.28515625 86.98242188 C110.08562442 88.97313739 108.08479319 90.8850362 106.3203125 93.27734375 C105 95 105 95 102 96 C101.505 97.485 101.505 97.485 101 99 C99.33777069 99.67765473 97.66994577 100.34159028 96 101 C93.6852333 102.64937701 91.43450557 104.32659429 89.1875 106.0625 C78.31738569 114.19537171 67.01704541 120.3958763 54.4375 125.5 C53.18803589 126.00793091 53.18803589 126.00793091 51.91333008 126.52612305 C47.24433066 128.34684891 42.9914725 129.51760266 38 130 C38 129.01 38 128.02 38 127 C38.66 127 39.32 127 40 127 C40.1134375 126.31421875 40.226875 125.6284375 40.34375 124.921875 C41.10101384 121.5502479 42.26639856 118.47744564 43.5 115.25 C46.31527856 107.40977658 48.60546523 100.71438448 45.05859375 92.78515625 C42.1319727 87.84985802 38.41342259 85.90958006 33.125 84.25 C19.58321485 81.03793236 5.74501938 82.0288845 -8 83 C-9.50918332 19.01836664 -9.50918332 19.01836664 0 0 Z " fill="#B643FE" transform="translate(372,598)"/>
<path d="M0 0 C1.23556641 0.01353516 1.23556641 0.01353516 2.49609375 0.02734375 C43.96962981 1.16707451 83.62944147 31.58120964 112.8359375 58.39453125 C115.19817846 60.50281115 117.6363576 62.48088186 120.125 64.4375 C124.37018105 62.77048988 127.28158398 59.60982465 130.5 56.5 C136.81803626 50.52211477 143.38464948 45.06697796 150.31542969 39.81884766 C152.15644067 38.41349956 153.97336948 36.98083247 155.7890625 35.54296875 C174.42267471 20.95680181 195.30082653 9.01059771 218.125 2.4375 C218.88167969 2.21191406 219.63835937 1.98632812 220.41796875 1.75390625 C231.96301397 -1.12738731 246.09507983 -1.15037628 257.125 3.4375 C258.115 3.7675 259.105 4.0975 260.125 4.4375 C260.455 5.0975 260.785 5.7575 261.125 6.4375 C263.65233235 7.09305119 263.65233235 7.09305119 266.125 7.4375 C266.125 8.4275 266.125 9.4175 266.125 10.4375 C267.775 11.0975 269.425 11.7575 271.125 12.4375 C270.465 12.7675 269.805 13.0975 269.125 13.4375 C268.465 13.1075 267.805 12.7775 267.125 12.4375 C267.455 13.4275 267.785 14.4175 268.125 15.4375 C268.785 15.7675 269.445 16.0975 270.125 16.4375 C269.795 17.0975 269.465 17.7575 269.125 18.4375 C267.145 17.4475 267.145 17.4475 265.125 16.4375 C265.125 17.4275 265.125 18.4175 265.125 19.4375 C264.81078929 21.44059329 264.4798954 23.44121336 264.125 25.4375 C263.465 25.4375 262.805 25.4375 262.125 25.4375 C261.795 27.0875 261.465 28.7375 261.125 30.4375 C259.475 30.1075 257.825 29.7775 256.125 29.4375 C256.125 28.7775 256.125 28.1175 256.125 27.4375 C255.0421875 27.251875 255.0421875 27.251875 253.9375 27.0625 C251.125 26.4375 251.125 26.4375 248.94140625 25.42578125 C235.24631939 20.62015438 220.43052616 26.32248213 208.09472656 32.24414062 C204.73451751 33.90729071 201.42455755 35.6575628 198.125 37.4375 C197.19010742 37.93902588 197.19010742 37.93902588 196.23632812 38.45068359 C188.07703769 42.86490289 180.49180636 47.79858221 173.125 53.4375 C172.05254836 54.24150608 170.97961185 55.04486572 169.90625 55.84765625 C163.82651329 60.42526703 158.01931017 65.1741079 152.4140625 70.33203125 C149.59741759 72.92276778 146.71153717 75.42742403 143.81640625 77.9296875 C143.25824219 78.42726563 142.70007813 78.92484375 142.125 79.4375 C141.53589844 79.91445313 140.94679688 80.39140625 140.33984375 80.8828125 C138.9144146 82.36396063 138.9144146 82.36396063 139.19140625 84.37890625 C140.38753988 87.01640593 141.92609645 88.4188203 144.0625 90.375 C147.91186204 94.10078701 151.3371703 97.97106035 154.625 102.1875 C155.05804443 102.73011475 155.49108887 103.27272949 155.93725586 103.83178711 C158.34130641 106.96769363 159.8543593 109.45908172 160.125 113.4375 C159.125 116.4375 159.125 116.4375 156.9375 118.0625 C153.9064525 119.54434544 151.45465334 119.97134853 148.125 120.4375 C145.77076863 121.04504358 143.45455721 121.73863284 141.125 122.4375 C140.60292969 121.77105469 140.08085938 121.10460937 139.54296875 120.41796875 C133.81832043 113.24962628 127.71830743 106.80897652 121.125 100.4375 C117.99508098 101.79897878 116.16167575 103.2541365 113.99609375 105.87890625 C113.43599609 106.54470703 112.87589844 107.21050781 112.29882812 107.89648438 C111.72583984 108.59064453 111.15285156 109.28480469 110.5625 110 C109.42114687 111.38110105 108.27423836 112.75763509 107.12109375 114.12890625 C106.61763428 114.73935791 106.1141748 115.34980957 105.59545898 115.97875977 C104.125 117.4375 104.125 117.4375 101.125 118.4375 C101.125 119.4275 101.125 120.4175 101.125 121.4375 C100.135 121.4375 99.145 121.4375 98.125 121.4375 C97.7846875 122.3965625 97.7846875 122.3965625 97.4375 123.375 C96.125 125.4375 96.125 125.4375 93.5 126.1875 C92.71625 126.27 91.9325 126.3525 91.125 126.4375 C90.465 124.7875 89.805 123.1375 89.125 121.4375 C88.465 121.4375 87.805 121.4375 87.125 121.4375 C87.125 120.7775 87.125 120.1175 87.125 119.4375 C86.50625 119.251875 85.8875 119.06625 85.25 118.875 C83.125 117.4375 83.125 117.4375 81.625 114.1875 C80.97519397 109.31395474 82.19922964 108.29722962 85.125 104.4375 C87.01998408 102.25003812 88.99712578 100.15113962 91 98.0625 C95.43113832 93.43870349 99.37055898 88.62888774 103.125 83.4375 C93.01168106 73.61860083 82.53862918 64.71059073 71.125 56.4375 C70.46387207 55.95684082 69.80274414 55.47618164 69.12158203 54.98095703 C46.64202668 38.76903972 20.08464142 21.04995691 -8.80859375 24.8203125 C-11.47368158 25.31448394 -11.47368158 25.31448394 -14.875 26.4375 C-15.205 27.0975 -15.535 27.7575 -15.875 28.4375 C-17.51642963 29.4784066 -19.18212215 30.48254326 -20.875 31.4375 C-20.875 30.7775 -20.875 30.1175 -20.875 29.4375 C-21.535 29.4375 -22.195 29.4375 -22.875 29.4375 C-23.535 30.7575 -24.195 32.0775 -24.875 33.4375 C-25.98273342 30.11429974 -25.80812508 28.74585256 -24.875 25.4375 C-24.215 24.7775 -23.555 24.1175 -22.875 23.4375 C-23.205 23.1075 -23.535 22.7775 -23.875 22.4375 C-24.535 22.7675 -25.195 23.0975 -25.875 23.4375 C-26.205 21.4575 -26.535 19.4775 -26.875 17.4375 C-27.865 17.4375 -28.855 17.4375 -29.875 17.4375 C-30.205 16.1175 -30.535 14.7975 -30.875 13.4375 C-27.125 10.4375 -27.125 10.4375 -24.875 10.4375 C-24.545 9.4475 -24.215 8.4575 -23.875 7.4375 C-16.2860564 2.4814552 -9.09336233 -0.1218541 0 0 Z M-21.875 19.4375 C-20.875 21.4375 -20.875 21.4375 -20.875 21.4375 Z " fill="#F8F1FE" transform="translate(392.875,246.5625)"/>
<path d="M0 0 C0.99 0.99 0.99 0.99 2 2 C0.625 4 0.625 4 -1 6 C-1.66 6 -2.32 6 -3 6 C-3.2165625 6.51691406 -3.433125 7.03382813 -3.65625 7.56640625 C-5.55656369 11.00796273 -8.01522836 13.90137485 -10.5 16.9375 C-11.59088171 18.28431619 -12.68070847 19.63198748 -13.76953125 20.98046875 C-14.31432129 21.65513184 -14.85911133 22.32979492 -15.42041016 23.02490234 C-17.71991353 25.90017008 -19.95673427 28.82128909 -22.1875 31.75 C-25.89430207 36.60337902 -29.70914175 41.35426702 -33.59375 46.06640625 C-36.37908022 49.46215786 -39.13134834 52.88304483 -41.875 56.3125 C-42.38329346 56.94768555 -42.89158691 57.58287109 -43.4152832 58.23730469 C-46.36676655 61.93331899 -49.2922006 65.64831918 -52.20043945 69.37841797 C-56.69053188 75.13610237 -61.30566599 80.74883471 -66.06201172 86.28833008 C-70.34256477 91.31599745 -74.21491602 96.5880891 -78 102 C-78.639375 101.835 -79.27875 101.67 -79.9375 101.5 C-83.06608511 100.74155512 -84.13643402 101.52203046 -87 103 C-87.33 102.01 -87.66 101.02 -88 100 C-89.43750191 98.31201173 -89.43750191 98.31201173 -91 97 C-92.86049542 97 -94.24759171 97.36276062 -96 98 C-98.11103658 100.95545121 -98.19785783 103.43855901 -98 107 C-101.0625 107.875 -101.0625 107.875 -105 108 C-107.71632767 106.40430976 -109.77737727 104.21306306 -112 102 C-113.3267979 100.84660539 -114.6602876 99.70086834 -116 98.5625 C-119.36937714 95.6436791 -122.40055275 92.51976584 -125.359375 89.1875 C-126.92503791 87.76909471 -126.92503791 87.76909471 -128.90917969 88.24414062 C-131.29938359 89.10823115 -132.36728415 90.05917723 -134.09375 91.90625 C-134.64933594 92.48503906 -135.20492187 93.06382812 -135.77734375 93.66015625 C-136.34582031 94.26730469 -136.91429687 94.87445312 -137.5 95.5 C-138.628084 96.7048244 -139.76327616 97.90304175 -140.90625 99.09375 C-141.40447266 99.62677734 -141.90269531 100.15980469 -142.41601562 100.70898438 C-144.24702542 102.20133638 -145.73011129 102.4688508 -148 103 C-148.28875 103.61875 -148.5775 104.2375 -148.875 104.875 C-150.50850952 107.96051798 -152.88165706 108.64419872 -156 110 C-156.268125 109.360625 -156.53625 108.72125 -156.8125 108.0625 C-157.88667752 105.66868314 -157.88667752 105.66868314 -161 105 C-160.505 104.01 -160.505 104.01 -160 103 C-160.5775 102.608125 -161.155 102.21625 -161.75 101.8125 C-164.27964296 99.77473206 -166.10815098 97.63507543 -168 95 C-168 94.34 -168 93.68 -168 93 C-167.01 93 -166.02 93 -165 93 C-164.75894531 92.2678125 -164.51789063 91.535625 -164.26953125 90.78125 C-162.82979323 87.62711625 -161.18737702 85.88643722 -158.6875 83.5 C-157.883125 82.72527344 -157.07875 81.95054687 -156.25 81.15234375 C-155.5075 80.44207031 -154.765 79.73179687 -154 79 C-153.05924177 78.02396334 -152.12094441 77.04553364 -151.1875 76.0625 C-149.1781543 74.16797406 -147.54071076 73.03510438 -145 72 C-147.07216359 68.30813892 -149.37947307 65.2938919 -152.25 62.1875 C-153.43335938 60.89199219 -153.43335938 60.89199219 -154.640625 59.5703125 C-155.41921875 58.72210937 -156.1978125 57.87390625 -157 57 C-158.33956699 55.52647631 -159.67358095 54.04787009 -161 52.5625 C-161.556875 51.94503906 -162.11375 51.32757812 -162.6875 50.69140625 C-164 49 -164 49 -165 46 C-166.29355827 44.62804426 -167.62298702 43.28817344 -169 42 C-168.67 41.01 -168.34 40.02 -168 39 C-165 39 -165 39 -163 40.0625 C-160.87202708 41.34011157 -160.87202708 41.34011157 -158 40 C-158 39.01 -158 38.02 -158 37 C-157.2575 36.9175 -156.515 36.835 -155.75 36.75 C-152.47246747 35.85612749 -151.28440987 34.44060884 -149 32 C-149.6496875 31.30132813 -150.299375 30.60265625 -150.96875 29.8828125 C-151.8040625 28.97273437 -152.639375 28.06265625 -153.5 27.125 C-154.3353125 26.22007812 -155.170625 25.31515625 -156.03125 24.3828125 C-158 22 -158 22 -158 20 C-158.66 20 -159.32 20 -160 20 C-160 19.34 -160 18.68 -160 18 C-160.66 18 -161.32 18 -162 18 C-161.67 17.01 -161.34 16.02 -161 15 C-160.34475342 15.0707373 -159.68950684 15.14147461 -159.0144043 15.21435547 C-150.40400501 16.04566406 -141.86119249 16.15319998 -133.22045898 16.13037109 C-130.83375583 16.12504741 -128.44724407 16.13032866 -126.06054688 16.13671875 C-115.67375418 16.14073049 -105.36070781 15.72639954 -95 15 C-97.60221736 18.94145377 -100.27481528 22.70560551 -103.25 26.375 C-104.30960938 27.68597656 -104.30960938 27.68597656 -105.390625 29.0234375 C-105.92171875 29.67570313 -106.4528125 30.32796875 -107 31 C-99.20854359 37.05712564 -99.20854359 37.05712564 -90 40 C-85.82175004 38.80810619 -83.86639858 37.1033537 -81.25 33.6875 C-80.21939453 32.36298828 -80.21939453 32.36298828 -79.16796875 31.01171875 C-77.62488426 28.86808246 -76.19348551 26.75488011 -74.80078125 24.51953125 C-74.24052246 23.64325073 -74.24052246 23.64325073 -73.66894531 22.74926758 C-72.61106021 21.07677271 -71.58781439 19.38251781 -70.56640625 17.6875 C-66.97842658 13.93022448 -64.00984385 13.73037252 -59 13 C-56.66566087 12.57317294 -54.33241464 12.1403463 -52 11.703125 C-50.71174316 11.46940186 -49.42348633 11.23567871 -48.09619141 10.99487305 C-23.3458004 7.59329823 -23.3458004 7.59329823 0 0 Z M-100 102 C-99 104 -99 104 -99 104 Z " fill="#F4D9FE" transform="translate(642,601)"/>
<path d="M0 0 C6.06610656 1.37581798 11.68035671 3.28236421 17.4375 5.625 C18.74521362 6.15504639 18.74521362 6.15504639 20.0793457 6.69580078 C40.22572971 14.95356611 58.46792279 25.08685531 76 38 C77.485 38.99 77.485 38.99 79 40 C78.69933583 45.54081112 75.21029146 48.75534833 71.75 52.75 C70.46484013 54.2686303 69.18235418 55.78952686 67.90234375 57.3125 C67.24991699 58.08851563 66.59749023 58.86453125 65.92529297 59.6640625 C62.9463368 63.27839836 60.12810738 67.00792574 57.3125 70.75 C53.04051545 76.40545923 48.63863457 81.89177025 44.01831055 87.26538086 C40.30329754 91.59877682 36.77095213 96.05589543 33.26513672 100.55932617 C29.73419669 105.08743559 26.13178893 109.55247514 22.5 114 C17.90536544 119.62907132 13.3800033 125.3056861 8.90698242 131.03173828 C4.68769912 136.42334886 0.36174239 141.7228302 -4 147 C-7.1443163 145.42784185 -7.56571945 142.27839642 -8.6875 139.125 C-8.94632965 138.4163681 -9.2051593 137.70773621 -9.47183228 136.97763062 C-10.02962509 135.44941662 -10.58441279 133.92010315 -11.13653564 132.38983154 C-12.58118942 128.39142773 -14.05353846 124.40323958 -15.5234375 120.4140625 C-15.8172934 119.6151358 -16.11114929 118.81620911 -16.41390991 117.99307251 C-19.07890956 110.75807934 -21.80728463 103.55203793 -24.625 96.375 C-25.02589844 95.32828125 -25.42679688 94.2815625 -25.83984375 93.203125 C-26.21496094 92.25695312 -26.59007812 91.31078125 -26.9765625 90.3359375 C-27.29705566 89.51657715 -27.61754883 88.6972168 -27.94775391 87.85302734 C-28.9233195 85.65400207 -28.9233195 85.65400207 -32 85 C-31.01 84.505 -31.01 84.505 -30 84 C-29.79032519 82.36325278 -29.58341582 80.7261089 -29.38964844 79.08740234 C-28.64329021 75.08905468 -26.79481348 71.49818203 -25.125 67.8125 C-15.5235082 45.97208769 -5.56610445 23.27522769 0 0 Z " fill="#9B50FE" transform="translate(674,424)"/>
<path d="M0 0 C2.09333795 3.14000693 3.04250027 5.81691314 4.20703125 9.3984375 C4.51793953 10.34464462 4.51793953 10.34464462 4.83512878 11.30996704 C5.49857443 13.33026062 6.15608807 15.35241113 6.8125 17.375 C7.6691325 20.00915302 8.52934635 22.64208062 9.39453125 25.2734375 C9.60643097 25.91867371 9.81833069 26.56390991 10.03665161 27.22869873 C11.86633607 32.73410172 13.93239931 38.12364978 16.08862305 43.51025391 C17 46 17 46 17 48 C17.66 48.33 18.32 48.66 19 49 C19.74609375 50.78515625 19.74609375 50.78515625 20.4375 53.0625 C21.42301732 56.23131723 22.50094853 59.30085049 23.75 62.375 C25 66 25 66 24 69 C22.48539185 68.8764917 22.48539185 68.8764917 20.94018555 68.75048828 C5.9075547 67.67379731 -9.06628011 68.25235918 -24.10736084 68.8001709 C-27.52646253 68.92316666 -30.94585045 69.03751113 -34.36523438 69.15234375 C-39.1192305 69.31269594 -43.87311553 69.47581136 -48.626894 69.64249039 C-58.1008366 69.97419285 -67.57558565 70.27677782 -77.05078125 70.5703125 C-77.76082998 70.59231594 -78.47087872 70.61431938 -79.20244408 70.63698959 C-83.13494127 70.75869537 -87.06746017 70.87968023 -91 71 C-90.73108241 68.93993631 -90.44844122 66.88166154 -90.16015625 64.82421875 C-90.00426025 63.67783936 -89.84836426 62.53145996 -89.68774414 61.3503418 C-87.73992701 51.86156136 -80.59144268 44.70528453 -74 38 C-73.11248047 37.09314453 -73.11248047 37.09314453 -72.20703125 36.16796875 C-53.6310877 18.65819415 -24.29790915 6.44638406 0 0 Z " fill="#AC46FE" transform="translate(351,424)"/>
<path d="M0 0 C0.99 0.99 0.99 0.99 2 2 C0.625 4 0.625 4 -1 6 C-1.66 6 -2.32 6 -3 6 C-3.2165625 6.51691406 -3.433125 7.03382813 -3.65625 7.56640625 C-5.55656369 11.00796273 -8.01522836 13.90137485 -10.5 16.9375 C-11.59088171 18.28431619 -12.68070847 19.63198748 -13.76953125 20.98046875 C-14.31432129 21.65513184 -14.85911133 22.32979492 -15.42041016 23.02490234 C-17.71991353 25.90017008 -19.95673427 28.82128909 -22.1875 31.75 C-25.89430207 36.60337902 -29.70914175 41.35426702 -33.59375 46.06640625 C-36.37908022 49.46215786 -39.13134834 52.88304483 -41.875 56.3125 C-42.38329346 56.94768555 -42.89158691 57.58287109 -43.4152832 58.23730469 C-46.36676655 61.93331899 -49.2922006 65.64831918 -52.20043945 69.37841797 C-56.69053188 75.13610237 -61.30566599 80.74883471 -66.06201172 86.28833008 C-70.34256477 91.31599745 -74.21491602 96.5880891 -78 102 C-78.639375 101.835 -79.27875 101.67 -79.9375 101.5 C-83.06608511 100.74155512 -84.13643402 101.52203046 -87 103 C-87.33 102.01 -87.66 101.02 -88 100 C-89.49985609 98.33289654 -89.49985609 98.33289654 -91 97 C-90.505 95.515 -90.505 95.515 -90 94 C-92.57784846 91.35247996 -94.91648098 89.05567935 -98 87 C-98 86.34 -98 85.68 -98 85 C-98.54140625 84.78601563 -99.0828125 84.57203125 -99.640625 84.3515625 C-102.8392797 82.51922057 -105.20964484 80.00203394 -107.75 77.375 C-108.25660156 76.859375 -108.76320313 76.34375 -109.28515625 75.8125 C-110.52803902 74.54616661 -111.76465276 73.2736856 -113 72 C-112.195625 71.071875 -111.39125 70.14375 -110.5625 69.1875 C-103.81358836 61.308464 -97.31801356 53.22763823 -91 45 C-91.66 44.34 -92.32 43.68 -93 43 C-92.67 42.01 -92.34 41.02 -92 40 C-90.989375 39.814375 -89.97875 39.62875 -88.9375 39.4375 C-82.07927874 37.70548486 -78.33279739 30.17102706 -74.80859375 24.51953125 C-74.43395996 23.93534424 -74.05932617 23.35115723 -73.67333984 22.74926758 C-72.61204826 21.0780249 -71.58820969 19.38317381 -70.56640625 17.6875 C-66.97842658 13.93022448 -64.00984385 13.73037252 -59 13 C-56.66566087 12.57317294 -54.33241464 12.1403463 -52 11.703125 C-50.06761475 11.35254028 -50.06761475 11.35254028 -48.09619141 10.99487305 C-23.3458004 7.59329823 -23.3458004 7.59329823 0 0 Z " fill="#B144FE" transform="translate(642,601)"/>
<path d="M0 0 C9.79876965 0.52518703 19.34991978 1.86852317 29.01977539 3.47412109 C31.42944305 3.87366409 33.84051718 4.26363175 36.25195312 4.65234375 C57.74446926 8.14971255 57.74446926 8.14971255 64 10 C65 12 65 12 64.34320068 14.34629822 C63.79384857 15.81831444 63.79384857 15.81831444 63.23339844 17.32006836 C62.61715607 18.98706032 62.61715607 18.98706032 61.98846436 20.68772888 C61.53336487 21.89292679 61.07826538 23.09812469 60.609375 24.33984375 C60.14895813 25.57287735 59.68854126 26.80591095 59.21417236 28.0763092 C58.23715779 30.69007744 57.25455044 33.30165682 56.26806641 35.91186523 C55.00521556 39.25480124 53.75668807 42.60287272 52.51238632 45.95275021 C51.32346273 49.14726622 50.12210354 52.33705777 48.921875 55.52734375 C48.47487244 56.73051743 48.02786987 57.9336911 47.56732178 59.17332458 C47.14388489 60.28780472 46.720448 61.40228485 46.28417969 62.55053711 C45.73005402 64.02374672 45.73005402 64.02374672 45.16473389 65.52671814 C44.03803516 67.91923333 42.99339955 69.29715701 41 71 C40.51789062 70.01257813 40.03578125 69.02515625 39.5390625 68.0078125 C38.90125423 66.7134369 38.26322171 65.41917179 37.625 64.125 C37.30789063 63.47402344 36.99078125 62.82304687 36.6640625 62.15234375 C35.31109879 59.41822959 34.17227482 57.17227482 32 55 C31.21578814 53.44211676 30.43714189 51.88109326 29.69189453 50.30419922 C22.32869263 34.73421449 13.1935429 19.75007956 2.84423828 5.98388672 C0 2.18471931 0 2.18471931 0 0 Z " fill="#9F4EFE" transform="translate(589,408)"/>
<path d="M0 0 C-1.46195853 4.16390283 -3.5349674 7.39295518 -6.0625 11 C-25.70994091 39.64459317 -25.70994091 39.64459317 -40 71 C-41.9375 70.3125 -41.9375 70.3125 -44 69 C-44.38058531 67.34348447 -44.70725565 65.67427287 -45 64 C-45.51351994 62.434022 -46.06277749 60.87942852 -46.64233398 59.33666992 C-46.97615585 58.44191452 -47.30997772 57.54715912 -47.65391541 56.62528992 C-48.19454369 55.19235344 -48.19454369 55.19235344 -48.74609375 53.73046875 C-49.50846748 51.68685043 -50.27083715 49.64323059 -51.03320312 47.59960938 C-52.23459552 44.39336122 -53.4374393 41.18766168 -54.64086914 37.98217773 C-55.80450189 34.87875892 -56.96294985 31.77343925 -58.12109375 28.66796875 C-58.47948837 27.71875046 -58.837883 26.76953217 -59.20713806 25.79154968 C-61.15269957 20.57096982 -62.76497626 15.43402486 -64 10 C-57.84821847 8.89413946 -51.69585713 7.79158002 -45.54296875 6.69189453 C-43.45589766 6.31842204 -41.36897942 5.94409418 -39.28222656 5.56884766 C-7.40885386 -0.16102519 -7.40885386 -0.16102519 0 0 Z " fill="#A649FE" transform="translate(436,408)"/>
<path d="M0 0 C0.66 0 1.32 0 2 0 C2.52207031 1.02996094 3.04414063 2.05992187 3.58203125 3.12109375 C8.69611472 13.07189868 14.31841391 22.5017581 20.53222656 31.80126953 C22.05957947 34.08925029 23.57360336 36.3856623 25.0859375 38.68359375 C33.70503451 52.50444252 33.70503451 52.50444252 44 65 C38.59784253 65.18291329 33.80199265 64.53523536 28.53125 63.390625 C27.33429504 63.1385025 27.33429504 63.1385025 26.11315918 62.88128662 C24.42823953 62.52480918 22.74404213 62.16490257 21.06054688 61.80175781 C18.53684736 61.25794003 16.01092492 60.7257102 13.484375 60.1953125 C3.5662011 58.09397972 -6.23508656 55.72962027 -16 53 C-17.14618321 49.65567647 -16.89727238 48.05725785 -15.44921875 44.8671875 C-13.43218045 40.13907621 -11.68433337 35.36786687 -10.01953125 30.5078125 C-9.75921112 29.74925964 -9.49889099 28.99070679 -9.23068237 28.20916748 C-8.69479109 26.64371736 -8.15998299 25.07789606 -7.6262207 23.51171875 C-6.80679028 21.10825287 -5.98278163 18.70639144 -5.15820312 16.3046875 C-4.63254405 14.76832099 -4.107144 13.23186583 -3.58203125 11.6953125 C-3.3372554 10.98174591 -3.09247955 10.26817932 -2.84028625 9.5329895 C-1.76781471 6.3799474 -0.72516638 3.2530535 0 0 Z " fill="#AE47FE" transform="translate(393,527)"/>
<path d="M0 0 C0.66 0 1.32 0 2 0 C3.64141697 4.58376884 5.27684553 9.16961843 6.90722656 13.75732422 C7.46035185 15.31126659 8.01498988 16.8646715 8.57128906 18.41748047 C12.07301123 28.1957552 15.29922689 37.96769451 18 48 C11.90805574 50.45128339 5.89029932 52.08501319 -0.51953125 53.48046875 C-1.49991867 53.69818436 -2.48030609 53.91589996 -3.49040222 54.14021301 C-5.5479201 54.59584558 -7.6060641 55.04865905 -9.66479492 55.4987793 C-12.8217226 56.18951791 -15.97638286 56.88995831 -19.13085938 57.59179688 C-21.13529094 58.03442388 -23.1398441 58.47650073 -25.14453125 58.91796875 C-26.08827103 59.12729538 -27.0320108 59.33662201 -28.00434875 59.55229187 C-29.31667732 59.83807854 -29.31667732 59.83807854 -30.65551758 60.12963867 C-31.42414627 60.29823898 -32.19277496 60.46683929 -32.98469543 60.64054871 C-35 61 -35 61 -38 61 C-37.41895749 56.99830397 -35.40185727 54.76893155 -32.875 51.6875 C-20.1751927 35.68226341 -9.86099095 17.8456893 0 0 Z " fill="#A74AFE" transform="translate(630,531)"/>
<path d="M0 0 C0.66 0.66 1.32 1.32 2 2 C1.69606851 4.60773216 1.28198798 7.06237496 0.75 9.625 C0.45257884 11.17518014 0.15837963 12.72598146 -0.1328125 14.27734375 C-0.28137695 15.06608887 -0.42994141 15.85483398 -0.58300781 16.66748047 C-1.20762622 20.16139396 -1.68753669 23.66583253 -2.125 27.1875 C-2.27195312 28.35667969 -2.41890625 29.52585937 -2.5703125 30.73046875 C-3.87763221 42.91997236 -4.25282553 55.12958675 -4.5625 67.375 C-4.60583551 68.99740345 -4.6494537 70.61979938 -4.69335938 72.2421875 C-4.79882006 76.16137954 -4.90049656 80.08065237 -5 84 C-8.85402129 84.08770383 -12.70778291 84.14062735 -16.5625 84.1875 C-18.19155273 84.22520508 -18.19155273 84.22520508 -19.85351562 84.26367188 C-25.99995636 84.31971845 -30.65338923 84.17547325 -36 81 C-37.79435992 77.74356904 -38.44458755 75.58530316 -37.41918945 71.92895508 C-34.29536157 64.26316502 -30.43641484 57.01982692 -26.5 49.75 C-25.78555329 48.42095963 -25.07152833 47.09169246 -24.35791016 45.76220703 C-19.58441619 36.88109058 -14.75214723 28.032075 -9.90332031 19.19189453 C-6.444516 12.86850316 -3.12486149 6.49642258 0 0 Z " fill="#B544FD" transform="translate(349,595)"/>
<path d="M0 0 C0.65524658 0.0707373 1.31049316 0.14147461 1.9855957 0.21435547 C10.59599499 1.04566406 19.13880751 1.15319998 27.77954102 1.13037109 C30.16624417 1.12504741 32.55275593 1.13032866 34.93945312 1.13671875 C45.32624582 1.14073049 55.63929219 0.72639954 66 0 C63.87387663 3.24613732 61.78067159 6.42435757 59.23828125 9.359375 C58.75939453 9.91753906 58.28050781 10.47570312 57.78710938 11.05078125 C57.30048828 11.61152344 56.81386719 12.17226563 56.3125 12.75 C52.79907939 16.62583618 52.79907939 16.62583618 50 21 C49.34 21 48.68 21 48 21 C47.76023437 21.55816406 47.52046875 22.11632812 47.2734375 22.69140625 C45.72295913 25.50224281 43.80718126 27.5849491 41.625 29.9375 C39.24884413 32.50835761 36.96989528 35.03917961 34.8359375 37.81640625 C34.23007812 38.53699219 33.62421875 39.25757813 33 40 C32.34 40 31.68 40 31 40 C29.66619078 38.20988763 28.33817423 36.41530255 27.03125 34.60546875 C24.56329165 31.43983755 21.87328032 28.54686492 19.125 25.625 C6.05432804 11.6681122 6.05432804 11.6681122 3 5 C2.34 5 1.68 5 1 5 C1 4.34 1 3.68 1 3 C0.34 3 -0.32 3 -1 3 C-0.67 2.01 -0.34 1.02 0 0 Z " fill="#B442FE" transform="translate(481,616)"/>
<path d="M0 0 C3.35433109 0.94933899 6.69246505 1.89748835 10 3 C10.33 3.66 10.66 4.32 11 5 C13.52733235 5.65555119 13.52733235 5.65555119 16 6 C16 6.99 16 7.98 16 9 C18.475 9.99 18.475 9.99 21 11 C20.34 11.33 19.68 11.66 19 12 C18.34 11.67 17.68 11.34 17 11 C17.495 12.485 17.495 12.485 18 14 C18.66 14.33 19.32 14.66 20 15 C19.67 15.66 19.34 16.32 19 17 C17.68 16.34 16.36 15.68 15 15 C15 15.99 15 16.98 15 18 C14.68578929 20.00309329 14.3548954 22.00371336 14 24 C13.34 24 12.68 24 12 24 C11.67 25.65 11.34 27.3 11 29 C9.35 28.67 7.7 28.34 6 28 C6 27.34 6 26.68 6 26 C5.278125 25.87625 4.55625 25.7525 3.8125 25.625 C1 25 1 25 -1.3125 24 C-4.22537192 22.91614068 -6.71972788 22.59857389 -9.8125 22.375 C-10.78832031 22.30023438 -11.76414062 22.22546875 -12.76953125 22.1484375 C-13.50558594 22.09945313 -14.24164062 22.05046875 -15 22 C-15 21.67 -15 21.34 -15 21 C-11.37 20.67 -7.74 20.34 -4 20 C-3.25578558 14.88352584 -2.94701476 10.14519598 -3.2578125 4.98046875 C-2.92603259 2.43179582 -1.9379798 1.60821884 0 0 Z " fill="#D5B4FE" transform="translate(643,248)"/>
<path d="M0 0 C24.17125382 -0.58715596 24.17125382 -0.58715596 31 5 C34.44143211 8.91940879 36.14207788 11.2372854 36.125 16.4375 C36.12886719 17.61119141 36.12886719 17.61119141 36.1328125 18.80859375 C36 21 36 21 35 24 C32.01527508 22.60927545 29.4935055 20.98024167 26.875 18.98828125 C26.0910083 18.39813232 25.3070166 17.8079834 24.49926758 17.19995117 C23.67450928 16.57709229 22.84975098 15.9542334 22 15.3125 C15.51464218 10.45885796 9.08214181 6.00630684 1.95703125 2.13671875 C1.31121094 1.76160156 0.66539062 1.38648438 0 1 C0 0.67 0 0.34 0 0 Z " fill="#9A53FC" transform="translate(732,426)"/>
<path d="M0 0 C0.33 0.66 0.66 1.32 1 2 C1.8971875 2.433125 1.8971875 2.433125 2.8125 2.875 C5.41864396 4.21530261 7.07663215 5.80186531 9 8 C9 8.66 9 9.32 9 10 C8.34 10 7.68 10 7 10 C6.67 10.99 6.34 11.98 6 13 C5.01 13 4.02 13 3 13 C1.14223235 16.13498292 0.79859524 18.37471432 1 22 C-2.0625 22.875 -2.0625 22.875 -6 23 C-8.70733245 21.38750089 -10.77628324 19.21394219 -13 17 C-14.30363566 15.86473998 -15.61584594 14.73923149 -16.9375 13.625 C-17.95833333 12.75 -18.97916667 11.875 -20 11 C-19.01 10.67 -18.02 10.34 -17 10 C-16.34 10.33 -15.68 10.66 -15 11 C-11.41150583 9.59580663 -9.33529454 8.42673851 -6.9375 5.375 C-5 3 -5 3 -2.25 2.1875 C-1.5075 2.125625 -0.765 2.06375 0 2 C0 1.34 0 0.68 0 0 Z M-1 17 C0 19 0 19 0 19 Z " fill="#E29EFD" transform="translate(543,686)"/>
<path d="M0 0 C1.29608947 0.93137592 2.58671632 1.8703566 3.875 2.8125 C4.59429687 3.33457031 5.31359375 3.85664062 6.0546875 4.39453125 C8 6 8 6 10 9 C7 10 7 10 4 9 C4 8.34 4 7.68 4 7 C2.15798847 8.42636282 0.32659413 9.86644632 -1.5 11.3125 C-2.5209375 12.11300781 -3.541875 12.91351562 -4.59375 13.73828125 C-5.3878125 14.48464844 -6.181875 15.23101563 -7 16 C-7 16.99 -7 17.98 -7 19 C-7.66 19.66 -8.32 20.32 -9 21 C-10.18628542 19.5764575 -11.37148979 18.15199805 -12.55078125 16.72265625 C-13.50602074 15.58718289 -14.48246078 14.46916584 -15.48046875 13.37109375 C-16.7278002 11.97701743 -17.87231784 10.49252051 -19 9 C-18.67 8.01 -18.34 7.02 -18 6 C-15 6 -15 6 -13 7.0625 C-10.87202708 8.34011157 -10.87202708 8.34011157 -8 7 C-8 6.01 -8 5.02 -8 4 C-7.236875 3.896875 -6.47375 3.79375 -5.6875 3.6875 C-2.77363954 2.94209384 -1.97049603 2.15541061 0 0 Z " fill="#E2A2FE" transform="translate(492,634)"/>
<path d="M0 0 C3.72450216 2.10515339 5.6795921 3.24267224 7.375 7.25 C7.58125 8.1575 7.7875 9.065 8 10 C6.80375 9.79375 5.6075 9.5875 4.375 9.375 C0.42039568 8.89119202 -2.36474386 9.18237193 -6 11 C-7.33333333 12.83333333 -7.33333333 12.83333333 -8 15 C-9 17 -9 17 -10 19 C-11.23697917 17.50260417 -12.47395833 16.00520833 -13.7109375 14.5078125 C-14.75250992 13.28948839 -15.86660097 12.13339903 -17 11 C-15.58521865 10.35004703 -14.16808513 9.70521278 -12.75 9.0625 C-11.96109375 8.70285156 -11.1721875 8.34320313 -10.359375 7.97265625 C-8.23426033 7.09657421 -6.23901352 6.49334196 -4 6 C-2.88625 5.7215625 -2.88625 5.7215625 -1.75 5.4375 C-1.1725 5.293125 -0.595 5.14875 0 5 C0 3.35 0 1.7 0 0 Z " fill="#C791FD" transform="translate(552,358)"/>
<path d="M0 0 C0.65524658 0.0707373 1.31049316 0.14147461 1.9855957 0.21435547 C10.59599499 1.04566406 19.13880751 1.15319998 27.77954102 1.13037109 C30.16624417 1.12504741 32.55275593 1.13032866 34.93945312 1.13671875 C45.32624582 1.14073049 55.63929219 0.72639954 66 0 C64.625 2.5 64.625 2.5 63 5 C62.34 5 61.68 5 61 5 C61 4.34 61 3.68 61 3 C40.54 3 20.08 3 -1 3 C-0.67 2.01 -0.34 1.02 0 0 Z " fill="#B54EF6" transform="translate(481,616)"/>
<path d="M0 0 C0.66 0.33 1.32 0.66 2 1 C1.56179109 5.55737263 1.14958831 8.57653445 -2 12 C-0.35 11.34 1.3 10.68 3 10 C1.56603319 13.14478861 -0.19729814 15.63554335 -2.375 18.3125 C-5.34421212 22.05655871 -7.75832396 25.78564904 -10 30 C-10.66 30 -11.32 30 -12 30 C-10.69975377 25.97393636 -9.25317201 22.06525633 -7.6171875 18.1640625 C-7.17246094 17.10058594 -6.72773438 16.03710938 -6.26953125 14.94140625 C-5.80933594 13.84699219 -5.34914062 12.75257813 -4.875 11.625 C-4.40707031 10.50738281 -3.93914062 9.38976562 -3.45703125 8.23828125 C-2.30661628 5.49137204 -1.1542148 2.74531422 0 0 Z " fill="#B04AF7" transform="translate(255,441)"/>
<path d="M0 0 C1.32 1.32 2.64 2.64 4 4 C0.68652912 5.7320416 -2.34022969 7.21576351 -6 8 C-6.99 8.495 -6.99 8.495 -8 9 C-8.33 7.68 -8.66 6.36 -9 5 C-8.071875 4.731875 -7.14375 4.46375 -6.1875 4.1875 C-3.23759634 3.08851629 -1.94384814 2.37581439 0 0 Z M-19 6 C-16 6 -16 6 -13.4375 7.0625 C-12.633125 7.371875 -11.82875 7.68125 -11 8 C-10.34 7.67 -9.68 7.34 -9 7 C-8.67 7.99 -8.34 8.98 -8 10 C-8.99 10.66 -9.98 11.32 -11 12 C-11 11.34 -11 10.68 -11 10 C-11.99 10.66 -12.98 11.32 -14 12 C-16.1875 11.625 -16.1875 11.625 -18 11 C-18.33 9.35 -18.66 7.7 -19 6 Z " fill="#DD94FE" transform="translate(492,634)"/>
<path d="M0 0 C3.91209308 1.59415503 6.37218086 4.13893332 9.3125 7.125 C9.79307861 7.61202393 10.27365723 8.09904785 10.76879883 8.60083008 C14.67647159 12.59227141 18.40800756 16.72148341 22 21 C21.67 21.66 21.34 22.32 21 23 C19.35 22.67 17.7 22.34 16 22 C15.76152344 21.11699219 15.52304687 20.23398437 15.27734375 19.32421875 C13.87304746 15.66961281 12.23723776 13.64535034 9.5625 10.8125 C8.78003906 9.97332031 7.99757813 9.13414062 7.19140625 8.26953125 C5.47762256 6.4946501 3.75576915 4.73318691 2 3 C-0.49361571 4.20381448 -2.68143083 5.45428722 -5 7 C-3.70700306 4.11562221 -2.34058637 2.12780579 0 0 Z " fill="#8F32FB" transform="translate(512,346)"/>
<path d="M0 0 C2.05511705 6.3331158 -2.33601609 12.85296259 -4.95703125 18.6171875 C-6.45514148 22.03983635 -7.76339578 25.53173747 -9.0703125 29.03125 C-10 31 -10 31 -12 32 C-11.40028425 28.60909784 -10.55010145 25.57233438 -9.2578125 22.3828125 C-8.91363281 21.52816406 -8.56945312 20.67351562 -8.21484375 19.79296875 C-7.85519531 18.91253906 -7.49554688 18.03210938 -7.125 17.125 C-6.77308594 16.25230469 -6.42117188 15.37960937 -6.05859375 14.48046875 C-4.09583283 9.62829027 -2.08074074 4.80271605 0 0 Z " fill="#AC4CF8" transform="translate(273,397)"/>
<path d="M0 0 C0 0.99 0 1.98 0 3 C-0.66 3.66 -1.32 4.32 -2 5 C-1.81751855 7.73722173 -0.99272038 9.00943654 0.6875 11.1875 C3.46587292 13.36514364 5.52582073 13.68416552 9 14 C9.33 16.31 9.66 18.62 10 21 C5.73236687 18.7140466 2.52336376 15.76416143 -0.8125 12.3125 C-1.31458984 11.80138672 -1.81667969 11.29027344 -2.33398438 10.76367188 C-3.56063509 9.51365638 -4.78097491 8.2574532 -6 7 C-4.02 4.69 -2.04 2.38 0 0 Z " fill="#B72FFE" transform="translate(535,666)"/>
<path d="M0 0 C0.66 0.99 1.32 1.98 2 3 C1.25357338 5.73789283 0.42431877 8.19395113 -0.625 10.8125 C-0.88667969 11.51181641 -1.14835937 12.21113281 -1.41796875 12.93164062 C-3.1425254 17.3846625 -5.21290986 21.12363227 -8 25 C-9 23 -9 23 -8.28735352 20.66162109 C-7.71392212 19.23197021 -7.71392212 19.23197021 -7.12890625 17.7734375 C-6.71962891 16.7421875 -6.31035156 15.7109375 -5.88867188 14.6484375 C-5.45103516 13.56820313 -5.01339844 12.48796875 -4.5625 11.375 C-3.9118457 9.74304688 -3.9118457 9.74304688 -3.24804688 8.078125 C-2.17219878 5.38259352 -1.08925535 2.69013541 0 0 Z " fill="#AA4DF8" transform="translate(284,369)"/>
<path d="M0 0 C0 1.65 0 3.3 0 5 C-3.25 5.75 -3.25 5.75 -7 6 C-9.4375 4.0625 -9.4375 4.0625 -11 2 C-6.99642627 -0.14477164 -4.43233175 -1.47744392 0 0 Z M-2 0 C-1 2 -1 2 -1 2 Z " fill="#D57CFC" transform="translate(544,703)"/>
<path d="M0 0 C0.33 0 0.66 0 1 0 C1 8.25 1 16.5 1 25 C0.01 24.67 -0.98 24.34 -2 24 C-1.85790331 21.3122562 -1.7114277 18.62486698 -1.5625 15.9375 C-1.52318359 15.18533203 -1.48386719 14.43316406 -1.44335938 13.65820312 C-1.18419281 9.05301259 -0.7200579 4.55633276 0 0 Z " fill="#A14BFA" transform="translate(337,320)"/>
<path d="M0 0 C0.66 0.66 1.32 1.32 2 2 C0.625 4 0.625 4 -1 6 C-1.66 6 -2.32 6 -3 6 C-3.66 7.32 -4.32 8.64 -5 10 C-5.33 9.01 -5.66 8.02 -6 7 C-6.66 6.34 -7.32 5.68 -8 5 C-8.33 4.34 -8.66 3.68 -9 3 C-6.03 2.01 -3.06 1.02 0 0 Z " fill="#AB4FF6" transform="translate(642,601)"/>
<path d="M0 0 C0.66 0 1.32 0 2 0 C3.5859375 1.86328125 3.5859375 1.86328125 5.375 4.3125 C7.2055093 6.81634642 8.70553357 8.78357238 11.2109375 10.625 C11.80132813 11.07875 12.39171875 11.5325 13 12 C13.25 14.6875 13.25 14.6875 13 17 C8.1596523 12.46217403 3.85310406 7.40199452 0 2 C0 1.34 0 0.68 0 0 Z " fill="#9B41FC" transform="translate(547,348)"/>
<path d="M0 0 C0.66 0.33 1.32 0.66 2 1 C0.98679687 1.99580078 0.98679687 1.99580078 -0.046875 3.01171875 C-1.38492187 4.33623047 -1.38492187 4.33623047 -2.75 5.6875 C-3.63171875 6.55761719 -4.5134375 7.42773438 -5.421875 8.32421875 C-7.78805298 10.78002468 -9.91892556 13.30141048 -12 16 C-12.99 15.67 -13.98 15.34 -15 15 C-10.05 10.05 -5.1 5.1 0 0 Z " fill="#A91EFC" transform="translate(512,688)"/>
<path d="M0 0 C-2 1.5 -2 1.5 -4 3 C-4.680625 3.556875 -5.36125 4.11375 -6.0625 4.6875 C-8 6 -8 6 -11 6 C-11.33 6.66 -11.66 7.32 -12 8 C-12.33 6.68 -12.66 5.36 -13 4 C-11.40233897 3.13372601 -9.79660056 2.28233535 -8.1875 1.4375 C-7.29417969 0.96183594 -6.40085937 0.48617187 -5.48046875 -0.00390625 C-3 -1 -3 -1 0 0 Z " fill="#CEAAFC" transform="translate(381,250)"/>
<path d="M0 0 C1.32 0 2.64 0 4 0 C2.54331217 2.96783129 0.98767914 5.86415313 -0.625 8.75 C-1.29402344 9.94882812 -1.29402344 9.94882812 -1.9765625 11.171875 C-2.31429687 11.77515625 -2.65203125 12.3784375 -3 13 C-3.66 13 -4.32 13 -5 13 C-3.58192622 8.52761347 -1.88695626 4.28853694 0 0 Z " fill="#AC51E8" transform="translate(248,458)"/>
<path d="M0 0 C2.66420516 0 4.52260646 0.09162237 7 1 C7.33 1.99 7.66 2.98 8 4 C5 6 5 6 2.8125 5.625 C2.214375 5.41875 1.61625 5.2125 1 5 C0.67 3.35 0.34 1.7 0 0 Z " fill="#D582FD" transform="translate(473,640)"/>
<path d="M0 0 C0.99 0.33 1.98 0.66 3 1 C3 2.98 3 4.96 3 7 C2.67 6.34 2.34 5.68 2 5 C1.34 5 0.68 5 0 5 C-0.66 6.32 -1.32 7.64 -2 9 C-3.10102197 5.69693408 -2.95067299 4.28414305 -2 1 C-1.34 0.67 -0.68 0.34 0 0 Z " fill="#BA85FE" transform="translate(370,271)"/>
<path d="M0 0 C0.66 0.66 1.32 1.32 2 2 C-0.1875 4.0625 -0.1875 4.0625 -3 6 C-5.8125 5.75 -5.8125 5.75 -8 5 C-5.64722731 2.27573689 -3.37503669 1.1858237 0 0 Z " fill="#CF9FFE" transform="translate(543,365)"/>
<path d="M0 0 C0.66 0.33 1.32 0.66 2 1 C0.50829734 5.9723422 -1.60457417 10.41845739 -4 15 C-5.32830615 11.01508155 -4.23204404 9.59951452 -2.5625 5.8125 C-2.08941406 4.72582031 -1.61632812 3.63914062 -1.12890625 2.51953125 C-0.75636719 1.68808594 -0.38382812 0.85664063 0 0 Z " fill="#A54FF8" transform="translate(302,325)"/>
<path d="M0 0 C2.375 0.6875 2.375 0.6875 5 2 C6.3125 4.625 6.3125 4.625 7 7 C5.68 7.33 4.36 7.66 3 8 C2.67 7.01 2.34 6.02 2 5 C0.50014391 3.33289654 0.50014391 3.33289654 -1 2 C-0.67 1.34 -0.34 0.68 0 0 Z " fill="#CA6AFA" transform="translate(552,696)"/>
<path d="M0 0 C0 4.13781054 -1.71509607 5.20919996 -4.5 8.1875 C-5.3353125 9.08855469 -6.170625 9.98960937 -7.03125 10.91796875 C-7.6809375 11.60503906 -8.330625 12.29210937 -9 13 C-9 8.86218946 -7.28490393 7.79080004 -4.5 4.8125 C-3.6646875 3.91144531 -2.829375 3.01039063 -1.96875 2.08203125 C-0.99421875 1.05142578 -0.99421875 1.05142578 0 0 Z " fill="#9235FB" transform="translate(506,353)"/>
<path d="M0 0 C0 0.99 0 1.98 0 3 C-0.66 3.66 -1.32 4.32 -2 5 C-1.61121812 8.01305957 -0.73543126 9.39685311 1 12 C-2.36720387 10.60667426 -3.9859524 9.0210714 -6 6 C-4.02 4.02 -2.04 2.04 0 0 Z " fill="#A61DFB" transform="translate(535,666)"/>
<path d="M0 0 C1.65 0 3.3 0 5 0 C4.67 0.598125 4.34 1.19625 4 1.8125 C2.79212012 4.05386471 2.79212012 4.05386471 3 7 C1.68 6.01 0.36 5.02 -1 4 C-0.67 2.68 -0.34 1.36 0 0 Z " fill="#E8B4FE" transform="translate(481,648)"/>
<path d="M0 0 C2.22189824 2.22189824 2.92598892 4.08482708 4 7 C1.03 6.505 1.03 6.505 -2 6 C-2 3 -2 3 0 0 Z " fill="#BF83FC" transform="translate(556,361)"/>
<path d="M0 0 C1.60520004 0.06023265 3.20934327 0.14908599 4.8125 0.25 C6.15248047 0.31960937 6.15248047 0.31960937 7.51953125 0.390625 C10 1 10 1 11.82421875 3.046875 C12.40623047 4.01367188 12.40623047 4.01367188 13 5 C8.15340923 4.40895235 4.39251833 3.02055843 0 1 C0 0.67 0 0.34 0 0 Z " fill="#8F41FB" transform="translate(643,247)"/>
<path d="M0 0 C0.33 0 0.66 0 1 0 C-0.20118343 8.92307692 -0.20118343 8.92307692 -1 11 C-1.99 11.33 -2.98 11.66 -4 12 C-3.33501617 7.61110675 -1.81242323 4.0188515 0 0 Z " fill="#AD4CF8" transform="translate(260,429)"/>
<path d="M0 0 C0.99 0.33 1.98 0.66 3 1 C1.38405168 3.04119788 -0.2856382 5.04072937 -2 7 C-2.66 7 -3.32 7 -4 7 C-4 5.68 -4 4.36 -4 3 C-3.01 2.67 -2.02 2.34 -1 2 C-0.67 1.34 -0.34 0.68 0 0 Z " fill="#FAE9FE" transform="translate(508,688)"/>
<path d="M0 0 C3.16115776 1.36983503 3.9927092 1.9890638 6 5 C3 6 3 6 0 5 C0 3.35 0 1.7 0 0 Z " fill="#E6B6FC" transform="translate(496,638)"/>
<path d="M0 0 C0.33 0 0.66 0 1 0 C2.13764351 4.26616316 3 7.56486311 3 12 C2.01 12 1.02 12 0 12 C-0.19477739 10.37585622 -0.38059458 8.75063577 -0.5625 7.125 C-0.66691406 6.22007812 -0.77132813 5.31515625 -0.87890625 4.3828125 C-1 2 -1 2 0 0 Z " fill="#AB4EFB" transform="translate(344,392)"/>
<path d="M0 0 C-1.78810766 0.69670416 -3.58062052 1.38211189 -5.375 2.0625 C-6.37273437 2.44535156 -7.37046875 2.82820312 -8.3984375 3.22265625 C-11 4 -11 4 -13 3 C-12.01 2.67 -11.02 2.34 -10 2 C-10 1.34 -10 0.68 -10 0 C-6.26432828 -0.76411467 -3.65188082 -1.07174763 0 0 Z " fill="#933DFC" transform="translate(384,248)"/>
<path d="M0 0 C0.66 0 1.32 0 2 0 C2.33 0.99 2.66 1.98 3 3 C2.01 3.495 2.01 3.495 1 4 C0.67 2.68 0.34 1.36 0 0 Z M-1 4 C-0.34 4.33 0.32 4.66 1 5 C-0.65 6.98 -2.3 8.96 -4 11 C-4.66 10.67 -5.32 10.34 -6 10 C-4.35 8.02 -2.7 6.04 -1 4 Z " fill="#F8EDFC" transform="translate(496,669)"/>
<path d="M0 0 C0.66 0.33 1.32 0.66 2 1 C1.34 2.65 0.68 4.3 0 6 C-1.32 5.34 -2.64 4.68 -4 4 C-3.67 3.01 -3.34 2.02 -3 1 C-2.01 0.67 -1.02 0.34 0 0 Z " fill="#AC51FA" transform="translate(396,473)"/>
<path d="M0 0 C1.65 0 3.3 0 5 0 C1.67692308 4.8 1.67692308 4.8 -1.75 5.8125 C-2.4925 5.874375 -3.235 5.93625 -4 6 C-3.34 5.195625 -2.68 4.39125 -2 3.5625 C0.10254514 1.41038085 0.10254514 1.41038085 0 0 Z " fill="#A75BFB" transform="translate(491,368)"/>
<path d="M0 0 C0.66 0.33 1.32 0.66 2 1 C0.55049545 4.7910119 -1.15172566 8.3874638 -3 12 C-4 10 -4 10 -3.22265625 7.6171875 C-2.83980469 6.71226562 -2.45695312 5.80734375 -2.0625 4.875 C-1.68222656 3.96492188 -1.30195313 3.05484375 -0.91015625 2.1171875 C-0.60980469 1.41851562 -0.30945313 0.71984375 0 0 Z " fill="#A251F8" transform="translate(318,286)"/>
<path d="M0 0 C1.32 0.66 2.64 1.32 4 2 C3.01 2 2.02 2 1 2 C0.34 5.3 -0.32 8.6 -1 12 C-2.36088895 7.91733314 -1.68398693 5.24071899 -1 1 C-0.67 0.67 -0.34 0.34 0 0 Z " fill="#B34DF5" transform="translate(372,598)"/>
<path d="M0 0 C0.66 0.66 1.32 1.32 2 2 C0.02 4.31 -1.96 6.62 -4 9 C-4.66 8.34 -5.32 7.68 -6 7 C-4.02 4.69 -2.04 2.38 0 0 Z " fill="#E7CFFB" transform="translate(485,343)"/>
<path d="M0 0 C1.15224028 0.92961422 2.29659176 1.8690125 3.4375 2.8125 C4.07558594 3.33457031 4.71367187 3.85664062 5.37109375 4.39453125 C7 6 7 6 8 9 C4.20620942 7.50958227 2.31656242 5.30937488 0 2 C0 1.34 0 0.68 0 0 Z " fill="#B42BFC" transform="translate(484,657)"/>
<path d="M0 0 C0.66 0.33 1.32 0.66 2 1 C0.12050295 4.57104439 -1.17053157 6.54744301 -5 8 C-3.8141763 4.62496331 -2.72426311 2.35277269 0 0 Z " fill="#AD33FC" transform="translate(550,648)"/>
<path d="M0 0 C0.66 0.66 1.32 1.32 2 2 C1.7578125 4.1640625 1.7578125 4.1640625 1.125 6.625 C0.92132813 7.44226563 0.71765625 8.25953125 0.5078125 9.1015625 C0.34023438 9.72804688 0.17265625 10.35453125 0 11 C-0.33 11 -0.66 11 -1 11 C-2.23076923 4.6 -2.23076923 4.6 -1.0625 1.5625 C-0.711875 1.046875 -0.36125 0.53125 0 0 Z " fill="#B553F0" transform="translate(349,595)"/>
<path d="M0 0 C0.12375 0.639375 0.2475 1.27875 0.375 1.9375 C0.684375 2.9584375 0.684375 2.9584375 1 4 C1.66 4.33 2.32 4.66 3 5 C1.1875 5.6875 1.1875 5.6875 -1 6 C-2.75 4.5625 -2.75 4.5625 -4 3 C-2.68 2.01 -1.36 1.02 0 0 Z " fill="#CCA3FD" transform="translate(647,268)"/>
<path d="M0 0 C0.33 0.66 0.66 1.32 1 2 C-0.32 3.65 -1.64 5.3 -3 7 C-3.99 6.67 -4.98 6.34 -6 6 C-4.02 4.02 -2.04 2.04 0 0 Z " fill="#B126FA" transform="translate(503,697)"/>
<path d="M0 0 C1.65 0 3.3 0 5 0 C5 1.65 5 3.3 5 5 C2.5 3.625 2.5 3.625 0 2 C0 1.34 0 0.68 0 0 Z " fill="#BA35FE" transform="translate(547,688)"/>
<path d="M0 0 C0 0.66 0 1.32 0 2 C-1.65 2.66 -3.3 3.32 -5 4 C-5.33 2.68 -5.66 1.36 -6 0 C-2.25 -1.125 -2.25 -1.125 0 0 Z " fill="#D17EFC" transform="translate(555,641)"/>
<path d="M0 0 C0.66 0.66 1.32 1.32 2 2 C-0.64 3.98 -3.28 5.96 -6 8 C-4.73058503 4.08597051 -3.48832306 2.20927127 0 0 Z " fill="#AF4AF8" transform="translate(270,438)"/>
<path d="M0 0 C2.64 0 5.28 0 8 0 C8 0.33 8 0.66 8 1 C5.36 1 2.72 1 0 1 C0 0.67 0 0.34 0 0 Z " fill="#BA58F9" transform="translate(512,616)"/>
<path d="M0 0 C0.66 0.66 1.32 1.32 2 2 C0.68 2 -0.64 2 -2 2 C-1.34 1.34 -0.68 0.68 0 0 Z " fill="#CD67FC" transform="translate(481,712)"/>
<path d="M0 0 C2.31 0 4.62 0 7 0 C7 0.33 7 0.66 7 1 C4.69 1 2.38 1 0 1 C0 0.67 0 0.34 0 0 Z " fill="#A85BFA" transform="translate(499,383)"/>
<path d="M0 0 C0.33 0 0.66 0 1 0 C1 1.65 1 3.3 1 5 C0.34 4.67 -0.32 4.34 -1 4 C-0.67 2.68 -0.34 1.36 0 0 Z " fill="#B875FE" transform="translate(471,361)"/>
<path d="M0 0 C0.33 0.99 0.66 1.98 1 3 C0.01 2.67 -0.98 2.34 -2 2 C-1.34 1.34 -0.68 0.68 0 0 Z " fill="#D06AFE" transform="translate(471,697)"/>
<path d="M0 0 C1.98 0 3.96 0 6 0 C6 0.33 6 0.66 6 1 C4.02 1 2.04 1 0 1 C0 0.67 0 0.34 0 0 Z " fill="#BC59F9" transform="translate(521,616)"/>
<path d="M0 0 C0.66 0.66 1.32 1.32 2 2 C1.01 2.33 0.02 2.66 -1 3 C-0.67 2.01 -0.34 1.02 0 0 Z " fill="#AF7DFE" transform="translate(665,261)"/>
<path d="M0 0 C1.32 0 2.64 0 4 0 C3.67 0.66 3.34 1.32 3 2 C2.01 1.34 1.02 0.68 0 0 Z " fill="#B752FA" transform="translate(376,581)"/>
<path d="M0 0 C4 1 4 1 4 1 Z " fill="#B954FD" transform="translate(537,597)"/>
<path d="M0 0 C1.485 0.99 1.485 0.99 3 2 C2.01 2 1.02 2 0 2 C0 1.34 0 0.68 0 0 Z " fill="#B46DFF" transform="translate(469,366)"/>
<path d="" fill="#BF52F6" transform="translate(0,0)"/>
<path d="M0 0 C0.99 0.495 0.99 0.495 2 1 C1.01 1.495 1.01 1.495 0 2 C0 1.34 0 0.68 0 0 Z " fill="#CA62FA" transform="translate(476,717)"/>
<path d="M0 0 C0.33 0.66 0.66 1.32 1 2 C0.34 1.67 -0.32 1.34 -1 1 C-0.67 0.67 -0.34 0.34 0 0 Z " fill="#CC5FFD" transform="translate(467,700)"/>
<path d="M0 0 C0.99 0.495 0.99 0.495 2 1 C1.01 1.495 1.01 1.495 0 2 C0 1.34 0 0.68 0 0 Z " fill="#CA6FFD" transform="translate(552,634)"/>
<path d="M0 0 C0.33 0.66 0.66 1.32 1 2 C0.34 1.67 -0.32 1.34 -1 1 C-0.67 0.67 -0.34 0.34 0 0 Z " fill="#C668FC" transform="translate(541,625)"/>
<path d="M0 0 C3 1 3 1 3 1 Z " fill="#BA54FD" transform="translate(488,597)"/>
<path d="M0 0 C0.66 0 1.32 0 2 0 C1.67 0.66 1.34 1.32 1 2 C0.67 1.34 0.34 0.68 0 0 Z " fill="#A95BFB" transform="translate(658,548)"/>
<path d="M0 0 C0.33 0.66 0.66 1.32 1 2 C0.34 1.67 -0.32 1.34 -1 1 C-0.67 0.67 -0.34 0.34 0 0 Z " fill="#C58CFD" transform="translate(547,368)"/>
<path d="M0 0 C0.33 0.66 0.66 1.32 1 2 C0.34 1.67 -0.32 1.34 -1 1 C-0.67 0.67 -0.34 0.34 0 0 Z " fill="#B47AFA" transform="translate(360,262)"/>
<path d="M0 0 C3 1 3 1 3 1 Z " fill="#9459F4" transform="translate(582,186)"/>
<path d="" fill="#BD50F3" transform="translate(0,0)"/>
<path d="" fill="#C050F5" transform="translate(0,0)"/>
<path d="" fill="#BE53F4" transform="translate(0,0)"/>
<path d="M0 0 C2 1 2 1 2 1 Z " fill="#C654FC" transform="translate(444,736)"/>
<path d="M0 0 C2 1 2 1 2 1 Z " fill="#C758FC" transform="translate(460,705)"/>
<path d="" fill="#C353FD" transform="translate(0,0)"/>
<path d="" fill="#C452FC" transform="translate(0,0)"/>
<path d="" fill="#BF51FB" transform="translate(0,0)"/>
<path d="M0 0 C2 1 2 1 2 1 Z " fill="#D17BFE" transform="translate(543,635)"/>
<path d="M0 0 C2 1 2 1 2 1 Z " fill="#BE5AFB" transform="translate(505,616)"/>
<path d="M0 0 C2 1 2 1 2 1 Z " fill="#BC57F8" transform="translate(501,616)"/>
<path d="M0 0 C2 1 2 1 2 1 Z " fill="#BA55FE" transform="translate(520,598)"/>
<path d="M0 0 C2 1 2 1 2 1 Z " fill="#BB53FE" transform="translate(474,596)"/>
<path d="M0 0 C2 1 2 1 2 1 Z " fill="#B854FC" transform="translate(421,591)"/>
<path d="M0 0 C2 1 2 1 2 1 Z " fill="#B952FC" transform="translate(405,588)"/>
<path d="M0 0 C2 1 2 1 2 1 Z " fill="#AE59F7" transform="translate(641,582)"/>
<path d="" fill="#B550FE" transform="translate(0,0)"/>
<path d="" fill="#B355FE" transform="translate(0,0)"/>
<path d="M0 0 C2 1 2 1 2 1 Z " fill="#AD55FD" transform="translate(604,533)"/>
<path d="M0 0 C2 1 2 1 2 1 Z " fill="#AE54F1" transform="translate(276,495)"/>
<path d="M0 0 C2 1 2 1 2 1 Z " fill="#B353F9" transform="translate(370,493)"/>
<path d="M0 0 C2 1 2 1 2 1 Z " fill="#B456F9" transform="translate(343,493)"/>
<path d="M0 0 C2 1 2 1 2 1 Z " fill="#B555F8" transform="translate(329,493)"/>
<path d="" fill="#AE54FB" transform="translate(0,0)"/>
<path d="M0 0 C2 1 2 1 2 1 Z " fill="#AD56F9" transform="translate(392,479)"/>
<path d="" fill="#A659FE" transform="translate(0,0)"/>
<path d="M0 0 C2 1 2 1 2 1 Z " fill="#AD56FE" transform="translate(537,451)"/>
<path d="M0 0 C2 1 2 1 2 1 Z " fill="#AA55FF" transform="translate(523,446)"/>
<path d="" fill="#AF55FE" transform="translate(0,0)"/>
<path d="M0 0 C2 1 2 1 2 1 Z " fill="#A061EF" transform="translate(734,424)"/>
<path d="M0 0 C2 1 2 1 2 1 Z " fill="#AF56FC" transform="translate(370,421)"/>
<path d="M0 0 C2 1 2 1 2 1 Z " fill="#AC55FC" transform="translate(512,402)"/>
<path d="M0 0 C2 1 2 1 2 1 Z " fill="#A25AFC" transform="translate(651,398)"/>
<path d="M0 0 C2 1 2 1 2 1 Z " fill="#A25BFB" transform="translate(619,391)"/>
<path d="M0 0 C2 1 2 1 2 1 Z " fill="#A25CFC" transform="translate(616,391)"/>
<path d="M0 0 C2 1 2 1 2 1 Z " fill="#A859FE" transform="translate(597,388)"/>
<path d="M0 0 C2 1 2 1 2 1 Z " fill="#A957FB" transform="translate(434,387)"/>
<path d="M0 0 C2 1 2 1 2 1 Z " fill="#AA5EFB" transform="translate(524,383)"/>
<path d="M0 0 C2 1 2 1 2 1 Z " fill="#A959FC" transform="translate(516,383)"/>
<path d="M0 0 C2 1 2 1 2 1 Z " fill="#A859FB" transform="translate(508,383)"/>
<path d="" fill="#AD55FE" transform="translate(0,0)"/>
<path d="" fill="#B570FD" transform="translate(0,0)"/>
<path d="" fill="#C180FE" transform="translate(0,0)"/>
<path d="" fill="#A75BF4" transform="translate(0,0)"/>
<path d="" fill="#A659FD" transform="translate(0,0)"/>
<path d="" fill="#AD72FC" transform="translate(0,0)"/>
<path d="" fill="#B274FF" transform="translate(0,0)"/>
<path d="" fill="#B37EFC" transform="translate(0,0)"/>
<path d="" fill="#B24EE0" transform="translate(0,0)"/>
<path d="" fill="#B750E4" transform="translate(0,0)"/>
<path d="" fill="#B54FE2" transform="translate(0,0)"/>
<path d="" fill="#B44CE1" transform="translate(0,0)"/>
<path d="" fill="#B24EE1" transform="translate(0,0)"/>
<path d="" fill="#B751E8" transform="translate(0,0)"/>
<path d="" fill="#B952EA" transform="translate(0,0)"/>
<path d="" fill="#BE53F2" transform="translate(0,0)"/>
<path d="" fill="#BF51F2" transform="translate(0,0)"/>
<path d="" fill="#C04DF4" transform="translate(0,0)"/>
<path d="" fill="#BF50F2" transform="translate(0,0)"/>
<path d="" fill="#C04DF0" transform="translate(0,0)"/>
<path d="" fill="#BF4AF4" transform="translate(0,0)"/>
<path d="" fill="#BF52F4" transform="translate(0,0)"/>
<path d="" fill="#BD4CF4" transform="translate(0,0)"/>
<path d="" fill="#BF55F5" transform="translate(0,0)"/>
<path d="" fill="#BD4EF6" transform="translate(0,0)"/>
<path d="" fill="#C155F2" transform="translate(0,0)"/>
<path d="" fill="#BC4DF5" transform="translate(0,0)"/>
<path d="" fill="#C04EF6" transform="translate(0,0)"/>
<path d="" fill="#C057F3" transform="translate(0,0)"/>
<path d="" fill="#C256F5" transform="translate(0,0)"/>
<path d="" fill="#C454FC" transform="translate(0,0)"/>
<path d="" fill="#C456FB" transform="translate(0,0)"/>
<path d="" fill="#C655F9" transform="translate(0,0)"/>
<path d="" fill="#C654FD" transform="translate(0,0)"/>
<path d="" fill="#C557FC" transform="translate(0,0)"/>
<path d="" fill="#C758FA" transform="translate(0,0)"/>
<path d="" fill="#C554F9" transform="translate(0,0)"/>
<path d="" fill="#CA59FF" transform="translate(0,0)"/>
<path d="" fill="#C653FA" transform="translate(0,0)"/>
<path d="" fill="#C652FD" transform="translate(0,0)"/>
<path d="" fill="#C55DF7" transform="translate(0,0)"/>
<path d="" fill="#C551FB" transform="translate(0,0)"/>
<path d="" fill="#CE67FC" transform="translate(0,0)"/>
<path d="" fill="#CA65FA" transform="translate(0,0)"/>
<path d="" fill="#D06CF9" transform="translate(0,0)"/>
<path d="" fill="#CE6AFC" transform="translate(0,0)"/>
<path d="" fill="#D674FD" transform="translate(0,0)"/>
<path d="" fill="#C453FE" transform="translate(0,0)"/>
<path d="" fill="#D575FC" transform="translate(0,0)"/>
<path d="" fill="#C75AFC" transform="translate(0,0)"/>
<path d="" fill="#D57AFA" transform="translate(0,0)"/>
<path d="" fill="#BE5BF5" transform="translate(0,0)"/>
<path d="" fill="#C55EF5" transform="translate(0,0)"/>
<path d="" fill="#CB5CFC" transform="translate(0,0)"/>
<path d="" fill="#C155FA" transform="translate(0,0)"/>
<path d="" fill="#D573FE" transform="translate(0,0)"/>
<path d="" fill="#CF62FD" transform="translate(0,0)"/>
<path d="" fill="#BD59F6" transform="translate(0,0)"/>
<path d="" fill="#BE57F4" transform="translate(0,0)"/>
<path d="" fill="#CE69FD" transform="translate(0,0)"/>
<path d="" fill="#BD56F8" transform="translate(0,0)"/>
<path d="" fill="#D883FE" transform="translate(0,0)"/>
<path d="" fill="#D77BFD" transform="translate(0,0)"/>
<path d="" fill="#C252F9" transform="translate(0,0)"/>
<path d="" fill="#C252F9" transform="translate(0,0)"/>
<path d="" fill="#C556F7" transform="translate(0,0)"/>
<path d="" fill="#BE53F7" transform="translate(0,0)"/>
<path d="" fill="#BF53F8" transform="translate(0,0)"/>
<path d="" fill="#B455EB" transform="translate(0,0)"/>
<path d="" fill="#B554EE" transform="translate(0,0)"/>
<path d="" fill="#B656F5" transform="translate(0,0)"/>
<path d="" fill="#D584FD" transform="translate(0,0)"/>
<path d="" fill="#C972FD" transform="translate(0,0)"/>
<path d="" fill="#C66EF9" transform="translate(0,0)"/>
<path d="" fill="#DB8FFE" transform="translate(0,0)"/>
<path d="" fill="#C56CF8" transform="translate(0,0)"/>
<path d="" fill="#D886FF" transform="translate(0,0)"/>
<path d="" fill="#C86EFD" transform="translate(0,0)"/>
<path d="" fill="#D884FF" transform="translate(0,0)"/>
<path d="" fill="#C766FC" transform="translate(0,0)"/>
<path d="" fill="#C769FA" transform="translate(0,0)"/>
<path d="" fill="#D782FD" transform="translate(0,0)"/>
<path d="" fill="#D680FC" transform="translate(0,0)"/>
<path d="" fill="#CB75FD" transform="translate(0,0)"/>
<path d="" fill="#C86FFE" transform="translate(0,0)"/>
<path d="" fill="#CB76FF" transform="translate(0,0)"/>
<path d="" fill="#C872FE" transform="translate(0,0)"/>
<path d="" fill="#CA71FE" transform="translate(0,0)"/>
<path d="" fill="#BE55FA" transform="translate(0,0)"/>
<path d="" fill="#C96AFD" transform="translate(0,0)"/>
<path d="" fill="#C96DFE" transform="translate(0,0)"/>
<path d="" fill="#C467FC" transform="translate(0,0)"/>
<path d="" fill="#C260FB" transform="translate(0,0)"/>
<path d="" fill="#BE58FD" transform="translate(0,0)"/>
<path d="" fill="#BE5BF8" transform="translate(0,0)"/>
<path d="" fill="#BC59F8" transform="translate(0,0)"/>
<path d="" fill="#B958FB" transform="translate(0,0)"/>
<path d="" fill="#BC56FB" transform="translate(0,0)"/>
<path d="" fill="#B954FB" transform="translate(0,0)"/>
<path d="" fill="#B755FD" transform="translate(0,0)"/>
<path d="" fill="#BD53FC" transform="translate(0,0)"/>
<path d="" fill="#B755FF" transform="translate(0,0)"/>
<path d="" fill="#B158F9" transform="translate(0,0)"/>
<path d="" fill="#BC54FB" transform="translate(0,0)"/>
<path d="" fill="#BC55FB" transform="translate(0,0)"/>
<path d="" fill="#B058F0" transform="translate(0,0)"/>
<path d="" fill="#AE59F7" transform="translate(0,0)"/>
<path d="" fill="#B453EF" transform="translate(0,0)"/>
<path d="" fill="#BA55FF" transform="translate(0,0)"/>
<path d="" fill="#BB54FD" transform="translate(0,0)"/>
<path d="" fill="#B754FC" transform="translate(0,0)"/>
<path d="" fill="#B555FC" transform="translate(0,0)"/>
<path d="" fill="#BD54FF" transform="translate(0,0)"/>
<path d="" fill="#B753FC" transform="translate(0,0)"/>
<path d="" fill="#B356FE" transform="translate(0,0)"/>
<path d="" fill="#B753FE" transform="translate(0,0)"/>
<path d="" fill="#B256FC" transform="translate(0,0)"/>
<path d="" fill="#B653FD" transform="translate(0,0)"/>
<path d="" fill="#B850FF" transform="translate(0,0)"/>
<path d="" fill="#B255FA" transform="translate(0,0)"/>
<path d="" fill="#B254FC" transform="translate(0,0)"/>
<path d="" fill="#BA54FD" transform="translate(0,0)"/>
<path d="" fill="#B157F7" transform="translate(0,0)"/>
<path d="" fill="#B853FD" transform="translate(0,0)"/>
<path d="" fill="#AE55F7" transform="translate(0,0)"/>
<path d="" fill="#B450FB" transform="translate(0,0)"/>
<path d="" fill="#B753FD" transform="translate(0,0)"/>
<path d="" fill="#B855FA" transform="translate(0,0)"/>
<path d="" fill="#AC58F7" transform="translate(0,0)"/>
<path d="" fill="#AB56F8" transform="translate(0,0)"/>
<path d="" fill="#B854FB" transform="translate(0,0)"/>
<path d="" fill="#A85EEF" transform="translate(0,0)"/>
<path d="" fill="#B153FD" transform="translate(0,0)"/>
<path d="" fill="#B358F9" transform="translate(0,0)"/>
<path d="" fill="#B350FB" transform="translate(0,0)"/>
<path d="" fill="#B352FE" transform="translate(0,0)"/>
<path d="" fill="#B453FB" transform="translate(0,0)"/>
<path d="" fill="#AC56FA" transform="translate(0,0)"/>
<path d="" fill="#B155FE" transform="translate(0,0)"/>
<path d="" fill="#B057FC" transform="translate(0,0)"/>
<path d="" fill="#A45DF5" transform="translate(0,0)"/>
<path d="" fill="#B658FA" transform="translate(0,0)"/>
<path d="" fill="#AD59FC" transform="translate(0,0)"/>
<path d="" fill="#AE55FE" transform="translate(0,0)"/>
<path d="" fill="#AB56FD" transform="translate(0,0)"/>
<path d="" fill="#AE55FD" transform="translate(0,0)"/>
<path d="" fill="#AD54FC" transform="translate(0,0)"/>
<path d="" fill="#AA5BFE" transform="translate(0,0)"/>
<path d="" fill="#B056FE" transform="translate(0,0)"/>
<path d="" fill="#9F5CF5" transform="translate(0,0)"/>
<path d="" fill="#B255FC" transform="translate(0,0)"/>
<path d="" fill="#AD53F1" transform="translate(0,0)"/>
<path d="" fill="#B658F8" transform="translate(0,0)"/>
<path d="" fill="#B354F9" transform="translate(0,0)"/>
<path d="" fill="#B354F8" transform="translate(0,0)"/>
<path d="" fill="#B257FF" transform="translate(0,0)"/>
<path d="" fill="#B656FA" transform="translate(0,0)"/>
<path d="" fill="#B655FA" transform="translate(0,0)"/>
<path d="" fill="#B355FA" transform="translate(0,0)"/>
<path d="" fill="#AE53FE" transform="translate(0,0)"/>
<path d="" fill="#AC5AFE" transform="translate(0,0)"/>
<path d="" fill="#AE54FF" transform="translate(0,0)"/>
<path d="" fill="#AE56FF" transform="translate(0,0)"/>
<path d="" fill="#AE56FD" transform="translate(0,0)"/>
<path d="" fill="#A85BFB" transform="translate(0,0)"/>
<path d="" fill="#B058FE" transform="translate(0,0)"/>
<path d="" fill="#AB56FE" transform="translate(0,0)"/>
<path d="" fill="#AC53FB" transform="translate(0,0)"/>
<path d="" fill="#B856F8" transform="translate(0,0)"/>
<path d="" fill="#A759DA" transform="translate(0,0)"/>
<path d="" fill="#A858DD" transform="translate(0,0)"/>
<path d="" fill="#AA58FF" transform="translate(0,0)"/>
<path d="" fill="#AB52FE" transform="translate(0,0)"/>
<path d="" fill="#AE55FD" transform="translate(0,0)"/>
<path d="" fill="#A75DFC" transform="translate(0,0)"/>
<path d="" fill="#A858FD" transform="translate(0,0)"/>
<path d="" fill="#A957FE" transform="translate(0,0)"/>
<path d="" fill="#AD56FE" transform="translate(0,0)"/>
<path d="" fill="#AC53FC" transform="translate(0,0)"/>
<path d="" fill="#AF55FF" transform="translate(0,0)"/>
<path d="" fill="#AE55FF" transform="translate(0,0)"/>
<path d="" fill="#9D5CF4" transform="translate(0,0)"/>
<path d="" fill="#A856FA" transform="translate(0,0)"/>
<path d="" fill="#AD55FE" transform="translate(0,0)"/>
<path d="" fill="#A360FD" transform="translate(0,0)"/>
<path d="" fill="#A954FD" transform="translate(0,0)"/>
<path d="" fill="#AD53FD" transform="translate(0,0)"/>
<path d="" fill="#AD55FD" transform="translate(0,0)"/>
<path d="" fill="#A361FB" transform="translate(0,0)"/>
<path d="" fill="#AB59FE" transform="translate(0,0)"/>
<path d="" fill="#B752FC" transform="translate(0,0)"/>
<path d="" fill="#B256FD" transform="translate(0,0)"/>
<path d="" fill="#A25EF8" transform="translate(0,0)"/>
<path d="" fill="#B653FB" transform="translate(0,0)"/>
<path d="" fill="#AD54FD" transform="translate(0,0)"/>
<path d="" fill="#A05FF9" transform="translate(0,0)"/>
<path d="" fill="#A15EFA" transform="translate(0,0)"/>
<path d="" fill="#B357F6" transform="translate(0,0)"/>
<path d="" fill="#9F5CF8" transform="translate(0,0)"/>
<path d="" fill="#A859FD" transform="translate(0,0)"/>
<path d="" fill="#A957FD" transform="translate(0,0)"/>
<path d="" fill="#A35FF9" transform="translate(0,0)"/>
<path d="" fill="#9D5EF2" transform="translate(0,0)"/>
<path d="" fill="#A45FF8" transform="translate(0,0)"/>
<path d="" fill="#B156FA" transform="translate(0,0)"/>
<path d="" fill="#A858FD" transform="translate(0,0)"/>
<path d="" fill="#AB57FB" transform="translate(0,0)"/>
<path d="" fill="#B553FE" transform="translate(0,0)"/>
<path d="" fill="#B453FB" transform="translate(0,0)"/>
<path d="" fill="#A859FC" transform="translate(0,0)"/>
<path d="" fill="#B056FC" transform="translate(0,0)"/>
<path d="" fill="#A15BF8" transform="translate(0,0)"/>
<path d="" fill="#AF58FC" transform="translate(0,0)"/>
<path d="" fill="#B251FE" transform="translate(0,0)"/>
<path d="" fill="#B553FF" transform="translate(0,0)"/>
<path d="" fill="#AD55FD" transform="translate(0,0)"/>
<path d="" fill="#AD57FC" transform="translate(0,0)"/>
<path d="" fill="#AB5AFB" transform="translate(0,0)"/>
<path d="" fill="#B053FB" transform="translate(0,0)"/>
<path d="" fill="#AB57FD" transform="translate(0,0)"/>
<path d="" fill="#AC58FD" transform="translate(0,0)"/>
<path d="" fill="#AC57FE" transform="translate(0,0)"/>
<path d="" fill="#AA55FD" transform="translate(0,0)"/>
<path d="" fill="#A15BFC" transform="translate(0,0)"/>
<path d="" fill="#A15CFB" transform="translate(0,0)"/>
<path d="" fill="#A259FB" transform="translate(0,0)"/>
<path d="" fill="#AC53FD" transform="translate(0,0)"/>
<path d="" fill="#A659FC" transform="translate(0,0)"/>
<path d="" fill="#A75AFD" transform="translate(0,0)"/>
<path d="" fill="#AC56FC" transform="translate(0,0)"/>
<path d="" fill="#AF58FF" transform="translate(0,0)"/>
<path d="" fill="#AE59F5" transform="translate(0,0)"/>
<path d="" fill="#AC56FB" transform="translate(0,0)"/>
<path d="" fill="#B059FD" transform="translate(0,0)"/>
<path d="" fill="#AD57FE" transform="translate(0,0)"/>
<path d="" fill="#AB58FF" transform="translate(0,0)"/>
<path d="" fill="#A758FE" transform="translate(0,0)"/>
<path d="" fill="#AA56FF" transform="translate(0,0)"/>
<path d="" fill="#AB58FF" transform="translate(0,0)"/>
<path d="" fill="#A859FD" transform="translate(0,0)"/>
<path d="" fill="#AA57FC" transform="translate(0,0)"/>
<path d="" fill="#AB5CFE" transform="translate(0,0)"/>
<path d="" fill="#A75DFB" transform="translate(0,0)"/>
<path d="" fill="#A65AFD" transform="translate(0,0)"/>
<path d="" fill="#A75DFA" transform="translate(0,0)"/>
<path d="" fill="#B167FE" transform="translate(0,0)"/>
<path d="" fill="#AB5FFE" transform="translate(0,0)"/>
<path d="" fill="#AF69FF" transform="translate(0,0)"/>
<path d="" fill="#B156FF" transform="translate(0,0)"/>
<path d="" fill="#B06EFF" transform="translate(0,0)"/>
<path d="" fill="#B26EFD" transform="translate(0,0)"/>
<path d="" fill="#A958FC" transform="translate(0,0)"/>
<path d="" fill="#AB56F4" transform="translate(0,0)"/>
<path d="" fill="#AB65FC" transform="translate(0,0)"/>
<path d="" fill="#AF68FD" transform="translate(0,0)"/>
<path d="" fill="#B26AFF" transform="translate(0,0)"/>
<path d="" fill="#AB5FFD" transform="translate(0,0)"/>
<path d="" fill="#C38BFF" transform="translate(0,0)"/>
<path d="" fill="#AA57FC" transform="translate(0,0)"/>
<path d="" fill="#C489FE" transform="translate(0,0)"/>
<path d="" fill="#B26CFE" transform="translate(0,0)"/>
<path d="" fill="#C080FF" transform="translate(0,0)"/>
<path d="" fill="#C182FF" transform="translate(0,0)"/>
<path d="" fill="#AA59F5" transform="translate(0,0)"/>
<path d="" fill="#AC55FE" transform="translate(0,0)"/>
<path d="" fill="#AA58F5" transform="translate(0,0)"/>
<path d="" fill="#A657F2" transform="translate(0,0)"/>
<path d="" fill="#9D61F9" transform="translate(0,0)"/>
<path d="" fill="#A95AFF" transform="translate(0,0)"/>
<path d="" fill="#A360FE" transform="translate(0,0)"/>
<path d="" fill="#A160FE" transform="translate(0,0)"/>
<path d="" fill="#A060FD" transform="translate(0,0)"/>
<path d="" fill="#9A5EF8" transform="translate(0,0)"/>
<path d="" fill="#A162FF" transform="translate(0,0)"/>
<path d="" fill="#A969FF" transform="translate(0,0)"/>
<path d="" fill="#A967FF" transform="translate(0,0)"/>
<path d="" fill="#A863FF" transform="translate(0,0)"/>
<path d="" fill="#AC73FF" transform="translate(0,0)"/>
<path d="" fill="#AC74FE" transform="translate(0,0)"/>
<path d="" fill="#A965FE" transform="translate(0,0)"/>
<path d="" fill="#AE76FF" transform="translate(0,0)"/>
<path d="" fill="#AE73FF" transform="translate(0,0)"/>
<path d="" fill="#B57DFB" transform="translate(0,0)"/>
<path d="" fill="#B47DFC" transform="translate(0,0)"/>
<path d="" fill="#B782FC" transform="translate(0,0)"/>
<path d="" fill="#BA88FF" transform="translate(0,0)"/>
<path d="" fill="#A368FF" transform="translate(0,0)"/>
<path d="" fill="#AD6CFE" transform="translate(0,0)"/>
<path d="" fill="#A76FFF" transform="translate(0,0)"/>
<path d="" fill="#BB84FF" transform="translate(0,0)"/>
<path d="" fill="#C091FF" transform="translate(0,0)"/>
<path d="" fill="#B179FF" transform="translate(0,0)"/>
<path d="" fill="#C293FF" transform="translate(0,0)"/>
<path d="" fill="#C292FF" transform="translate(0,0)"/>
<path d="" fill="#B480FF" transform="translate(0,0)"/>
<path d="" fill="#B172FF" transform="translate(0,0)"/>
<path d="" fill="#B582FF" transform="translate(0,0)"/>
<path d="" fill="#C595FF" transform="translate(0,0)"/>
<path d="" fill="#B376FF" transform="translate(0,0)"/>
<path d="" fill="#B072FE" transform="translate(0,0)"/>
<path d="" fill="#C69AFF" transform="translate(0,0)"/>
<path d="" fill="#B375FD" transform="translate(0,0)"/>
<path d="" fill="#BE8DFD" transform="translate(0,0)"/>
<path d="" fill="#B57DFB" transform="translate(0,0)"/>
<path d="" fill="#945EF6" transform="translate(0,0)"/>
<path d="" fill="#955EF6" transform="translate(0,0)"/>
<path d="" fill="#995AF3" transform="translate(0,0)"/>
<path d="" fill="#965CF2" transform="translate(0,0)"/>
<path d="" fill="#985DF5" transform="translate(0,0)"/>
<path d="" fill="#925BF6" transform="translate(0,0)"/>
<path d="" fill="#965AF5" transform="translate(0,0)"/>
<path d="" fill="#985CF7" transform="translate(0,0)"/>
<path d="" fill="#975BF5" transform="translate(0,0)"/>
<path d="" fill="#975DF5" transform="translate(0,0)"/>
</svg>
